<?xml version="1.0" encoding="utf-8"?>
<svg viewBox="0 0 500 500" xmlns="http://www.w3.org/2000/svg">
  <path d="M 437.894 305.619 L 403.294 289.919 L 393.394 273.919 C 431.994 249.519 455.394 207.119 455.394 161.419 L 455.394 95.719 C 455.294 92.019 453.194 88.619 449.894 86.919 L 360.994 39.619 C 357.994 38.019 354.394 38.019 351.494 39.719 L 265.394 86.919 C 262.194 88.719 260.294 92.019 260.394 95.719 L 260.394 162.719 C 260.294 181.719 264.194 200.619 271.994 218.019 L 199.894 218.019 C 184.394 218.019 169.694 225.319 160.194 237.619 L 120.894 289.119 L 54.894 307.119 C 37.494 311.819 25.494 327.619 25.394 345.619 L 25.394 370.819 C 25.494 392.919 43.494 410.819 65.594 411.019 L 70.394 411.019 C 77.794 437.819 105.594 453.519 132.394 446.019 C 149.394 441.319 162.694 428.019 167.394 411.019 L 314.394 411.019 C 321.794 437.819 349.594 453.519 376.394 446.019 C 393.394 441.319 406.694 428.019 411.394 411.019 L 421.194 411.019 C 443.294 410.919 461.294 393.019 461.394 370.819 L 461.394 341.919 C 461.294 326.219 452.094 312.119 437.894 305.619 Z M 280.394 101.619 L 356.694 59.719 L 435.394 101.719 L 435.394 161.419 C 435.294 207.119 407.894 248.219 365.794 265.919 C 365.794 265.919 365.694 265.919 365.594 265.919 L 355.994 270.019 L 348.194 266.519 C 306.994 248.419 280.394 207.719 280.394 162.619 L 280.394 101.619 L 280.394 101.619 Z M 118.894 427.519 C 102.094 427.519 88.594 413.919 88.594 397.219 C 88.594 380.419 102.194 366.919 118.894 366.919 C 135.694 366.919 149.194 380.519 149.194 397.219 C 149.194 413.919 135.594 427.419 118.894 427.519 Z M 362.894 427.519 C 346.094 427.519 332.594 413.919 332.594 397.219 C 332.594 380.519 346.194 366.919 362.894 366.919 C 379.694 366.919 393.194 380.519 393.194 397.219 C 393.294 413.919 379.694 427.419 362.894 427.519 Z M 441.494 370.719 L 441.394 370.719 C 441.294 381.819 432.294 390.819 421.194 390.919 L 412.794 390.919 C 409.194 363.319 383.994 343.919 356.394 347.519 C 333.794 350.419 315.894 368.319 312.994 390.919 L 168.794 390.919 C 165.194 363.319 139.994 343.919 112.394 347.519 C 89.794 350.419 71.894 368.319 68.994 390.919 L 65.594 390.919 C 54.494 390.819 45.494 381.819 45.394 370.719 L 45.394 345.519 C 45.494 336.519 51.494 328.719 60.194 326.319 L 129.394 307.419 C 131.494 306.819 133.394 305.619 134.794 303.819 L 176.194 249.619 C 181.894 242.219 190.694 237.919 199.994 237.919 L 283.394 237.919 C 297.594 258.519 317.294 274.819 340.194 284.919 L 352.194 290.119 C 354.694 291.219 357.594 291.219 360.194 290.119 L 373.694 284.319 C 374.394 284.019 375.094 283.719 375.694 283.419 L 387.994 303.119 C 388.994 304.819 390.494 306.119 392.294 306.919 L 429.694 323.819 C 436.794 327.019 441.394 334.119 441.494 341.919 L 441.494 370.719 L 441.494 370.719 Z" style="fill: rgb(243, 242, 242);"/>
  <path d="M 405.994 139.419 C 402.494 135.119 396.294 134.419 391.894 137.819 L 391.794 137.919 L 344.994 176.019 L 327.994 156.119 C 324.394 151.919 318.094 151.319 313.894 154.919 C 309.694 158.519 309.094 164.819 312.694 169.019 L 312.794 169.119 L 336.094 196.419 C 336.194 196.619 336.294 196.719 336.394 196.819 C 336.494 196.919 336.594 197.119 336.794 197.219 C 336.894 197.319 337.094 197.519 337.194 197.619 C 337.294 197.719 337.494 197.819 337.594 197.919 C 337.694 198.019 337.894 198.119 338.094 198.219 C 338.294 198.319 338.394 198.419 338.494 198.519 C 338.694 198.619 338.794 198.719 338.994 198.819 C 339.094 198.919 339.294 199.019 339.394 199.019 C 339.594 199.119 339.794 199.219 339.994 199.219 C 340.094 199.319 340.294 199.319 340.394 199.419 C 340.594 199.519 340.794 199.519 340.994 199.619 C 341.094 199.619 341.294 199.719 341.394 199.719 C 341.594 199.719 341.794 199.819 341.994 199.819 C 342.094 199.819 342.294 199.919 342.394 199.919 C 342.694 199.919 342.894 199.919 343.194 199.919 C 343.294 199.919 343.394 199.919 343.494 199.919 C 343.794 199.919 344.094 199.919 344.394 199.919 C 344.494 199.919 344.494 199.919 344.594 199.919 C 344.794 199.919 345.094 199.819 345.294 199.819 C 345.394 199.819 345.494 199.819 345.594 199.719 C 345.794 199.719 345.994 199.619 346.194 199.619 C 346.294 199.619 346.394 199.519 346.494 199.519 C 346.694 199.519 346.794 199.419 346.994 199.319 C 347.094 199.319 347.194 199.219 347.394 199.219 C 347.494 199.119 347.694 199.119 347.794 199.019 C 347.894 198.919 348.094 198.919 348.194 198.819 C 348.294 198.719 348.494 198.719 348.594 198.619 C 348.694 198.519 348.894 198.419 348.994 198.419 C 349.094 198.419 349.194 198.219 349.394 198.219 C 349.494 198.119 349.594 198.019 349.794 197.919 C 349.894 197.819 349.994 197.819 350.094 197.719 L 404.394 153.519 C 408.694 150.019 409.394 143.819 405.994 139.419 Z" style="fill: rgb(243, 242, 242);"/>
</svg>