<?xml version="1.0" encoding="utf-8"?>
<svg viewBox="0 0 500 500" xmlns="http://www.w3.org/2000/svg">
  <path d="M 378.564 76.466 L 331.664 76.466 L 331.664 71.166 C 331.564 54.166 317.764 40.366 300.764 40.466 L 285.264 40.466 C 275.264 15.066 246.564 2.566 221.164 12.566 C 208.364 17.566 198.264 27.666 193.264 40.466 L 178.064 40.466 C 161.264 40.466 147.664 54.066 147.664 70.866 C 147.664 70.966 147.664 71.066 147.664 71.266 L 147.664 76.566 L 100.764 76.566 C 77.964 76.566 59.664 95.466 59.664 118.266 L 59.664 448.666 C 59.664 471.166 77.864 489.466 100.464 489.566 C 100.564 489.566 100.664 489.566 100.864 489.566 L 378.564 489.566 C 401.064 489.766 419.564 471.666 419.664 449.066 C 419.664 448.966 419.664 448.866 419.664 448.666 L 419.664 118.166 C 419.664 95.366 401.264 76.466 378.564 76.466 Z M 167.664 71.166 C 167.464 65.466 171.964 60.666 177.664 60.466 C 177.764 60.466 177.964 60.466 178.064 60.466 L 200.464 60.466 C 205.164 60.466 209.164 57.166 210.164 52.666 C 213.464 38.566 225.064 29.066 239.064 29.066 C 252.964 29.066 264.964 38.866 267.864 52.466 C 268.864 57.166 272.864 60.466 277.664 60.466 L 300.664 60.466 C 306.664 60.366 311.564 65.166 311.564 71.166 L 311.564 110.466 L 167.664 110.466 L 167.664 71.166 L 167.664 71.166 Z M 399.664 448.566 C 399.664 460.066 390.364 469.366 378.964 469.466 C 378.864 469.466 378.664 469.466 378.564 469.466 L 100.764 469.466 C 89.264 469.666 79.764 460.466 79.664 448.966 C 79.664 448.866 79.664 448.666 79.664 448.566 L 79.664 118.166 C 79.664 106.366 89.064 96.466 100.764 96.466 L 147.664 96.466 L 147.664 120.766 C 147.464 125.866 151.464 130.266 156.664 130.466 C 156.864 130.466 157.064 130.466 157.164 130.466 L 321.664 130.466 C 327.064 130.666 331.564 126.366 331.664 120.966 C 331.664 120.866 331.664 120.866 331.664 120.766 L 331.664 96.466 L 378.564 96.466 C 390.364 96.466 399.664 106.466 399.664 118.166 L 399.664 448.566 Z" style="fill: rgb(243, 242, 242);"/>
  <path d="M 210.799 339.493 L 124.799 339.493 C 119.299 339.493 114.799 343.993 114.799 349.493 L 114.799 432.493 C 114.799 437.993 119.299 442.493 124.799 442.493 L 210.799 442.493 C 216.299 442.493 220.799 437.993 220.799 432.493 L 220.799 349.493 C 220.799 343.993 216.299 339.493 210.799 339.493 Z M 200.799 422.493 L 134.799 422.493 L 134.799 359.493 L 200.799 359.493 L 200.799 422.493 Z" style="fill: rgb(243, 242, 242);"/>
  <path d="M 189.599 372.393 C 185.499 368.893 179.299 369.293 175.699 373.293 L 163.199 387.493 L 158.899 384.093 C 154.599 380.593 148.299 381.293 144.799 385.593 C 141.499 389.993 142.199 396.293 146.599 399.793 L 158.399 409.193 C 162.599 412.493 168.599 411.993 172.199 407.993 L 190.799 386.493 C 194.399 382.293 193.799 375.993 189.599 372.393 Z" style="fill: rgb(243, 242, 242);"/>
  <path d="M 308.899 359.493 L 246.799 359.493 C 241.299 359.493 236.799 363.993 236.799 369.493 C 236.799 374.993 241.199 379.493 246.799 379.493 L 308.899 379.493 C 314.399 379.493 318.899 374.993 318.899 369.493 C 318.899 363.993 314.399 359.493 308.899 359.493 Z" style="fill: rgb(243, 242, 242);"/>
  <path d="M 350.599 401.493 L 246.799 401.493 C 241.299 401.493 236.799 405.993 236.799 411.493 C 236.799 416.993 241.299 421.493 246.799 421.493 L 350.699 421.493 C 356.199 421.493 360.699 416.993 360.699 411.493 C 360.699 405.993 356.199 401.493 350.599 401.493 Z" style="fill: rgb(243, 242, 242);"/>
  <path d="M 367.799 217.793 L 344.799 207.393 L 324.299 174.793 C 317.399 163.893 305.399 157.293 292.499 157.493 L 212.999 157.493 C 201.299 157.393 190.299 162.793 183.199 171.993 L 156.799 206.593 L 112.399 218.693 C 99.099 222.293 89.799 234.393 89.799 248.093 L 89.799 265.493 C 89.799 282.393 103.599 296.493 120.499 296.493 L 121.499 296.493 C 126.599 310.493 140.699 321.893 157.199 321.893 C 173.699 321.893 187.799 310.493 192.899 296.493 L 279.199 296.493 C 284.299 310.493 298.399 321.893 314.899 321.893 C 331.399 321.893 345.499 310.493 350.599 296.493 L 355.099 296.493 C 371.999 296.493 385.799 282.393 385.799 265.493 L 385.799 245.693 C 385.799 233.693 378.699 222.793 367.799 217.793 Z M 157.199 301.493 C 147.399 301.493 139.399 293.493 139.399 283.693 C 139.399 273.893 147.399 265.893 157.199 265.893 C 166.999 265.893 174.999 273.893 174.999 283.693 C 174.999 293.593 166.999 301.493 157.199 301.493 Z M 314.999 301.493 C 305.199 301.493 297.199 293.493 297.199 283.693 C 297.199 273.893 305.199 265.893 314.999 265.893 C 324.799 265.893 332.799 273.893 332.799 283.693 C 332.699 293.593 324.799 301.493 314.999 301.493 Z M 355.099 276.493 L 351.999 276.493 C 348.499 258.493 333.199 246.293 314.999 246.293 C 296.799 246.293 281.399 258.493 277.899 276.493 L 194.199 276.493 C 190.899 258.693 175.199 245.893 157.199 246.093 C 139.299 246.093 123.799 258.593 120.099 276.193 C 114.399 275.993 109.799 271.293 109.799 265.493 L 109.799 248.093 C 109.799 243.293 112.999 239.093 117.599 237.893 L 165.299 224.893 C 167.399 224.293 169.299 223.093 170.599 221.293 L 199.099 184.093 C 202.399 179.793 207.599 177.393 212.999 177.493 L 292.499 177.493 C 298.499 177.393 304.099 180.393 307.299 185.493 L 329.399 220.693 C 330.399 222.293 331.999 223.593 333.699 224.393 L 359.399 235.993 C 363.199 237.693 365.599 241.493 365.599 245.593 L 365.699 265.493 C 365.699 271.393 361.099 276.293 355.099 276.493 Z" style="fill: rgb(243, 242, 242);"/>
</svg>