<?xml version="1.0" encoding="utf-8"?>
<!DOCTYPE svg PUBLIC "-//W3C//DTD SVG 20010904//EN" "http://www.w3.org/TR/2001/REC-SVG-20010904/DTD/svg10.dtd">
<svg version="1.0" xmlns="http://www.w3.org/2000/svg" width="725px" height="344px" viewBox="0 0 725 344" preserveAspectRatio="xMidYMid meet">
 <g fill="#241f1e" fill-rule="evenodd">
  <path d="M314 338.5 C310.7 336.9 309.2 333 310.6 329.9 C312 326.7 350.9 288.4 372 269.4 C378.5 263.5 380.5 261.2 379.7 260.3 C379.4 260.1 375 261.3 369.9 263 C355.6 267.8 348.4 267.4 341.8 261.3 L339.2 258.8 334.3 261.3 C322.8 267.1 308.6 269.5 303 266.7 C301.6 266 299.8 264.1 299 262.4 C298.1 260.8 297.3 259.3 297.2 259.1 C297.1 258.8 294.4 259.8 291.2 261.2 C288 262.5 283.3 264.5 280.6 265.4 C277.9 266.4 275 268.1 274.1 269.3 C260.1 287 241 298.1 212.1 305.4 C201.1 308.1 199 307.3 199 300.4 C199 295.8 200 294.4 204.5 293.4 C213 291.5 225.3 287.3 233.4 283.6 C242.5 279.4 252 273.6 252 272 C252 271.6 247.1 271 241.2 270.6 C226.2 269.8 217 266.6 209 259.4 L205.1 255.8 201 257.9 C197.2 259.9 197 260.3 197 264.3 C197 270.4 194.4 279.4 190.4 287.6 C183.9 301 169.7 311.3 149.5 317.5 C124.8 324.9 104.8 322.9 89.9 311.4 C84.5 307.2 75 296 72.1 290.3 C71.2 288.5 69.8 288 64.2 287.4 C49.4 286 39.2 281.3 34.2 273.8 C31.7 270 31.5 268.7 31.5 261 C31.5 253.6 31.9 251.7 34.4 247 C37.7 240.6 47.8 229.7 51.9 228 C54.6 226.9 54.8 226.4 55.3 219.1 C56.3 203.5 59.6 195.9 70.4 184.5 C74.6 180.1 77.9 176.1 77.9 175.7 C78 174.7 68 170.3 61.4 168.4 C55.4 166.6 54.3 165.6 53.8 161.5 C53.5 158.8 52.6 158.2 43.5 154.4 C32.7 150 30.7 148.2 32.7 145 C34.6 141.9 34.3 141.2 29.4 139 C24.1 136.7 23 134.6 25.6 131.8 C27.2 130 28.2 129.8 33.7 130.3 C38.3 130.7 40 130.6 40 129.6 C40 127.9 27.2 121.1 16.1 117 C6.1 113.3 3.7 111.2 5.6 108.2 C7.7 104.8 23.1 106 33.8 110.5 C44 114.8 34.4 105 20 96.4 C16.4 94.3 12.4 92 11.2 91.3 C8.7 89.8 8.3 87 10.1 85.1 C12 83.3 22.4 83.7 31.8 86 C36.5 87.1 40.4 87.8 40.7 87.6 C41.3 86.9 33.8 70.9 30.6 66 C28.9 63.5 25.3 59.1 22.7 56.3 C17.5 50.8 17 48.6 20.6 46.3 C22.5 45 23.5 45.3 30.7 49 C37.5 52.5 50.1 61.5 57.4 68.2 C60.2 70.8 60.9 69.5 60.4 62.2 C57.8 20.9 57.7 17.9 59 16.4 C60.8 14.2 64.7 14.6 66.4 17.2 C68 19.7 72.9 28.7 82.7 47.2 C86.4 54.2 90 59.9 90.6 59.9 C91.2 59.9 93.2 55.8 95 50.7 C99.2 38.7 102.3 32 106.6 25.4 C109.4 20.9 110.5 20 112.9 20 C116.7 20 117.4 22.4 115.9 29.3 C114.5 35.5 115 61.4 116.5 64.2 C117.4 65.7 118.5 64.9 125.1 58.5 C132.9 50.8 139.7 46.5 142.4 47.6 C145.4 48.7 145.2 52.4 142.1 57.3 C138.7 62.8 132.2 77.5 131.3 81.9 C130.5 86 132.6 85.2 135.9 80.3 C138.8 76 150.8 65.4 153.8 64.5 C156.4 63.7 160 65.5 160 67.6 C159.9 68.5 157.1 72.9 153.5 77.4 C146.3 86.6 139.6 98.1 140.1 100.4 C140.4 101.5 141.7 101.1 145.7 98.3 C151.4 94.5 153.5 94.3 155.6 97.5 C156.8 99.3 156.6 100 153.9 103.7 C150.9 107.8 150.7 110 153.5 110 C154.2 110 155.3 110.8 155.9 111.9 C157 113.8 156.2 115.2 147 128.2 C144 132.4 143.7 133.2 144.8 135.5 C146.6 139.5 146.3 140.5 141.5 145.9 C136.1 151.9 131.6 159.5 132.4 160.9 C132.8 161.5 134.1 161.9 135.3 161.9 C138.3 161.9 149.3 165.6 155.9 168.7 C161.5 171.5 172.3 181.6 174.3 186 C174.9 187.4 176.8 190.2 178.5 192.2 C181.4 195.9 181.5 195.9 188.9 195.9 C193 195.9 201.4 196.4 207.5 197 L218.7 198.1 227.4 191.5 C237.5 183.8 249.1 177.7 260.9 173.9 C265.6 172.4 269.5 170.8 269.7 170.2 C269.9 169.7 265.1 169 257.7 168.6 C244.2 167.9 235.7 165.9 226.5 161.2 C205 150.3 198.1 123.1 212.6 107 C217.3 101.7 225.9 96.9 230.7 96.9 C235 96.9 239 100.4 239 104.1 C239 110.2 234.4 114 227 114 C223.5 114 222.8 114.4 221.4 117.1 C219 121.6 219.3 131.7 221.8 136.6 C226.4 145.5 236.1 151.3 250.2 153.6 C255.1 154.4 261.5 154.9 264.3 154.7 L269.5 154.5 270.1 149 C271.5 136.3 277.5 125.4 289.3 114.2 C297.3 106.6 303.7 102.6 315 98.1 C330.3 92 351.6 89 365.7 91 C376.1 92.5 379.6 93.8 383.7 98 C393.4 107.9 385.1 123.9 362.4 139.1 C349.5 147.7 325.9 158.3 313.7 161 C303.7 163.2 304.6 164.6 316.4 165.2 C327.9 165.9 332.5 167.5 334 171.6 C336.3 177.7 331.1 184 321.3 186.8 C312.1 189.4 295.4 187.5 287.5 182.9 L284 180.8 276.2 182.9 C267.4 185.4 254.2 191.3 247.2 196.1 C240.3 200.8 239.5 202.4 243.2 203.9 C244.4 204.4 247.7 205.6 250.5 206.7 L255.5 208.7 265 204.5 C279.8 197.9 289.9 195.9 301 197.1 C311.2 198.3 315.4 199.8 320.4 204.3 C331.1 213.8 329.5 228.5 316 243.3 L309.8 250.2 311.9 252.2 C315.8 255.8 323.1 253.1 337 242.9 C340.6 240.2 344.4 237.1 345.4 236 C347.2 234 347.2 234 345.4 234 C344.3 234 342 234.9 340.2 236 C335.5 238.8 333.2 238.5 330.9 234.7 C327.2 228.6 328.3 227.1 342.1 219.9 C348.7 216.5 351.6 215.6 356.9 215.2 C362.8 214.8 363.9 215 367.3 217.4 C371.2 220 371.2 220 375.8 218.4 C378.4 217.5 384.1 216.5 388.6 216.2 C396.5 215.7 396.9 215.8 399.5 218.4 C401.8 220.7 402.1 221.6 401.6 225 C400.8 230 402.1 230.1 408.1 225.6 C421.4 215.6 427.6 212.3 435.3 210.8 C442.7 209.5 446.6 210.7 448.7 215.1 C449.9 217.6 450.1 217.7 454.5 216.7 C462.9 214.9 468.3 217.5 470.9 224.4 C472.8 229.4 470 234.6 461.2 243 C456.9 247 453.9 250.4 454.5 250.6 C457.8 251.8 496.1 225.9 499.5 220.2 C503 214.4 511.3 209 516.8 209 C520.9 209 525 212.4 525 216 C525 218.2 525.7 219.3 527.9 220.4 C532.1 222.6 534 225.8 533.9 230.9 C533.9 236.2 532.3 239 525.5 245.3 C522.8 247.9 520.9 250.2 521.2 250.6 C521.6 250.9 526.3 248.8 531.6 245.8 C538.9 241.8 543.5 238.3 550.1 231.8 C559.2 222.8 566.7 217.9 577.5 213.8 C582.1 212 585.5 211.5 593.1 211.5 C602.2 211.5 602.8 211.6 604.8 214 C610.4 220.7 604.3 229.4 587.9 237.9 C583.6 240.2 575.8 243.1 570.5 244.4 C559.3 247.3 559 247.4 559 250.1 C559 252 559.4 252.2 565.2 251.8 C575.8 251 589.7 243.3 624.1 218.9 C631.6 213.5 636.3 208.4 635.3 206.8 C635.1 206.3 630.2 206 624.6 206 C618 205.9 613.9 205.5 613.1 204.7 C611.4 203 611.7 200.1 614 198.2 C615.8 196.6 616 195.3 616 181.8 C616 167.1 615.9 167 613.5 165.4 C610.6 163.5 610.2 160.8 612.5 158.5 C614.5 156.6 629.9 156.3 631.8 158.2 C633.6 160 633.2 163.8 630.9 165 C629 166 628.9 166.9 629.2 180.7 L629.5 195.5 632.2 195.8 C634.3 196 635.2 195.5 636.1 193.5 C638.3 188.7 644.1 189.4 645.4 194.7 C646.9 200.6 647.7 194.1 647.2 180.2 C646.7 167.6 646.4 165.8 644.8 164.9 C642.4 163.6 642.4 159.3 644.7 158.1 C645.7 157.5 652 157 658.7 156.9 C673.6 156.6 674.5 157 673.5 164.4 C673.1 167.2 672.2 170.2 671.4 171.1 C670.1 172.5 670.1 172.8 671.4 173.9 C673.1 175.4 673.5 181.7 672 186.6 C671.3 189.3 671.4 190 673.2 191.2 C674.9 192.3 675.3 193.5 675.1 197.5 C674.8 205.3 673.7 206 659.7 206 C653.2 205.9 647 205.5 646.1 205 C645.1 204.5 643.8 204.5 642.9 205 C641.7 205.7 641.9 206.2 643.8 208 C645.7 209.8 646 210.9 645.6 213.8 C644.3 222.9 642.9 230 641.5 235.4 C639.7 242.2 639.6 244 640.8 244 C641.9 244 675.1 221.8 681 217.1 C683.4 215.2 686.9 212.1 688.6 210.3 C692.2 206.5 696.6 205.8 699.3 208.8 C701.1 210.8 701.5 216 700 217.5 C699.5 218 698.4 222.9 697.5 228.3 C696.6 233.7 695.5 239 694.9 240 C692 245.4 694.6 245.1 704 238.9 C708.1 236.2 712.2 234 713.1 234 C716.1 233.9 718 236.9 718 241.4 C717.9 245.7 717.9 245.8 710.7 250.2 C684.5 266.4 664.9 272.7 652.8 268.9 C651 268.3 647.6 265.7 645.3 263.3 L641.2 258.8 637.2 260.8 C625.7 266.7 611 270.5 603 269.7 C597.7 269.2 590.3 265.2 589.2 262.2 C588.1 259.2 587 259.2 578.1 262.2 C571.3 264.6 567.6 265.3 561 265.3 C551.3 265.5 546.9 263.8 544.1 258.9 C543.2 257.3 541.8 256 541.1 256 C540.4 256 537.2 257.3 534.1 259.1 C520.2 266.7 505.4 270.9 499.5 269 C488.8 265.4 489.6 251.1 501 241.6 C502.9 240 504.9 238 505.3 237.2 C506.7 234.8 504.1 236.1 493.9 242.9 C486 248.2 480.5 251.5 465.5 259.9 C459.8 263.1 448.2 267.5 442.1 268.8 C427.5 271.9 420 261.3 428 248.9 C429.7 246.2 431.7 243.6 432.5 242.9 C434.6 241.2 434.3 240 432 240.6 C427.6 241.8 412.2 255 383.5 282.4 C373.1 292.3 362.5 302.4 360 304.8 C357.5 307.2 349.4 315.1 342 322.4 C334.5 329.7 327.2 336.4 325.7 337.3 C321.7 339.7 317.4 340.2 314 338.5 M313.8 333.4 C312.8 332 314.9 329.5 328.1 316.6 C349.1 296 378.5 268.1 400 248.3 C414.1 235.4 420.9 228.6 420.5 228.2 C420.2 227.9 418.3 229 416.2 230.6 C414.2 232.2 410 235.1 407 237 C403.9 238.8 401.2 240.7 401 241 C400 242.2 388.4 249.3 382 252.7 C368.3 259.9 355.4 263.2 348.5 261.2 C346.1 260.5 343 256.7 341.7 252.7 C341.6 252.3 338.1 253.7 333.9 255.9 C322.3 262.1 310 265.1 304.6 263 C302.2 262.1 301.9 261.5 302.1 258.7 C302.4 256 302.9 255.4 305.2 255.1 C307 254.9 308.3 255.5 309.1 256.9 C310.7 259.5 313.1 259.5 320.3 257 C330.9 253.4 350.7 238.2 354.5 230.8 C356.6 226.8 356.4 224 353.9 224 C351.8 224 342.9 228.2 337.3 232 L334.1 234 333.4 231.9 C333.1 230.8 332.9 229.7 333.1 229.5 C333.6 229.1 345.1 222.8 348.4 221.1 C352.3 219.1 360.1 218.5 362.8 219.9 C364.3 220.7 365 222 365 224 L365 227 368.7 225.3 C377.9 221.4 390.4 219 394.4 220.6 C396.2 221.3 396.5 225 394.8 226.7 C393.3 228.2 389.3 228.3 388.5 227 C386.5 223.7 374.8 227.6 365.4 234.5 C354.4 242.7 350.1 248.4 351.1 253.6 C351.4 255.1 352.6 255.5 357 255.7 C364.6 256.1 374.9 251.9 390.5 242.1 C401 235.4 416.1 225.1 419.7 221.9 C424 218.2 432.5 214.9 437.6 215 C440.5 215 443 215.4 443 215.8 C443 216.3 439.2 220.4 434.7 224.9 L426.5 233.1 434 229.1 C446.2 222.5 457.1 219.3 461.6 221 C462.9 221.5 464.5 223 465.1 224.4 C467.5 229.7 463.9 234.9 450.7 245.2 C438.2 254.9 436 257 436 259 C436 264.4 458.8 254.9 479.5 240.9 C486.1 236.5 493.6 231.4 496.2 229.6 C498.8 227.9 500.9 225.9 500.9 225.2 C501 223.1 508.2 215.7 511.7 214.3 C515.1 212.9 520 213.9 520 216 C520 216.7 518.2 218.8 516 220.8 C513.8 222.8 512 224.7 512 225 C512 225.3 514.7 225.1 518 224.6 C524.8 223.4 526.9 224.1 528.3 228.2 C530.3 233.7 526.8 238.5 512.7 249.4 C500.9 258.4 499.6 261.7 508.5 260 C516.6 258.4 529.8 252.1 542.6 243.7 C547.2 240.7 548 239.9 552.5 234.4 C556.5 229.4 568.1 221.8 577 218.4 C585.3 215.2 597 213.9 599.4 215.9 C601.5 217.7 601.3 221.2 599 224.2 C597.3 226.3 586.6 234.2 585 234.5 C584.7 234.6 583.1 235.2 581.5 235.9 C576 238.1 567 241 561.9 242.1 C556.3 243.3 553.6 246.1 553.6 251.1 C553.6 255.3 555.1 256.2 561.7 256.2 C568.6 256.1 580.1 252.3 587.3 247.9 C589.9 246.3 592.2 245 592.4 245 C593.2 244.9 621.8 225.4 628 220.7 C631.5 217.9 635.3 214.6 636.3 213.3 C637.3 212 638.8 211 639.5 211 C641.1 211 641.5 214.9 640.1 216.5 C639.6 217 638.7 220.8 638 225 C636.7 233.4 632.3 247.7 630.4 250 C629.8 250.8 628.7 252.5 628.1 253.7 C627 255.6 627.1 255.8 628.7 255.2 C630.3 254.6 640.8 248.6 649.4 243.5 C660.8 236.6 683.1 220.8 687.7 216.3 C690.7 213.3 693.5 211 694 211 C695.8 211 696.1 213.2 694.6 216.3 C693.8 218 692.8 221.9 692.4 225 C691 236.3 686.8 249.2 683.5 251.9 C682.6 252.6 682 253.8 682 254.5 C682 256.2 693.3 250.4 703.9 243.4 C710.6 239 713 238.5 713 241.4 C713 243.4 707.6 247.1 695 253.6 C681.9 260.4 673.8 263.5 666 264.8 C660.9 265.7 659 265.6 652.8 264.4 C648.7 263.5 645.5 259.5 645.5 255 L645.5 251.3 636.5 255.7 C620.8 263.6 608.3 266.8 600.5 265 C595.4 263.8 591 259.1 591 254.8 C591 252.7 590.6 251.9 589.7 252.3 C575 258.9 570.2 260.3 561 260.7 C552.1 261.1 551.3 261 548.7 258.8 C547 257.2 545.8 255 545.4 252.2 C544.7 248.1 543.7 246.9 542.5 248.9 C541.5 250.5 515.6 262.8 511 263.9 C504.4 265.4 499.3 265.2 497.5 263.4 C495.5 261.4 495.5 254.7 497.5 250.9 C499 247.9 510.4 238.5 517.9 234 C520.1 232.7 522 231.2 522 230.7 C522 230.3 517.6 230.2 512.2 230.6 C504.7 231.1 501.8 231.7 499.5 233.4 C497.8 234.5 495.7 235.9 494.8 236.5 C493.8 237 491.3 238.6 489.3 240 C468.3 254.4 445.7 265 436 265 C431.5 265 428 262.3 428 258.9 C428 252.6 434.2 245.5 449.6 234.2 C454.7 230.5 458.9 227 458.9 226.6 C459 224.5 447.4 227 440.3 230.5 C419.8 240.6 413.5 246 345.5 312 C325.5 331.3 322.4 333.9 318.5 334.5 C316 334.8 314.6 334.5 313.8 333.4 M599 259 C596.5 256.7 596.5 256.2 599 254.1 C601.1 252.4 601.7 249.6 600.6 247 C600 245.6 603.8 242.6 613.8 236.5 C614.7 235.9 618.2 233.5 621.7 231.1 C625.1 228.7 628 227.3 628 228 C628 230.1 622.9 244.3 621.6 246 C620.9 246.8 619.8 248.6 619.1 250 C614.4 259.2 604 263.9 599 259 M606.6 251.7 C607.3 246.8 608.6 245.3 615.2 241.5 C620.5 238.5 620.9 239.1 617.8 245.2 C615 251 610.4 256 608 256 C606.2 256 606 255.5 606.6 251.7 M653.5 259.1 C651.5 256.7 651.6 255.6 654 253.5 C656.2 251.4 656.5 249 654.7 247 C653.7 246 653.7 245.6 654.7 245.2 C655.4 245 661.7 241 668.7 236.3 C675.7 231.6 681.7 227.6 682.1 227.4 C683.1 226.7 680.5 235.8 677.9 242 C672.8 254 667.2 259.6 659.5 260.5 C655.9 260.8 654.6 260.6 653.5 259.1 M661 252 C661 249.8 661.6 247.4 662.5 246.5 C664.9 244.2 672.8 239.7 673.9 240.1 C675.4 240.6 670.4 249.9 666.9 253.2 C662.7 257.2 661 256.8 661 252 M563.7 235.4 C568.7 230.7 582.5 221.6 587.5 219.8 C599.7 215.3 595.7 225.1 582.5 232 C576.7 235 565.4 239 562.5 239 C560 239 560.1 238.9 563.7 235.4 M114.4 317.4 C113 316.8 113 316.6 114.5 314.9 C116.6 312.5 117.7 312.5 125.4 314.7 C130.5 316.1 131.1 316.5 129.2 317.2 C126.6 318.1 116.7 318.2 114.4 317.4 M103.7 315.1 C103 314.6 100.7 313.3 98.5 312.1 C96.3 311 94.1 309.4 93.6 308.7 C92.3 306.7 95.7 301.9 98.3 302 C101.4 302 112.4 308.4 112.8 310.4 C113.6 314.3 107.3 317.6 103.7 315.1 M136.1 313.1 C137.2 311.5 139.5 309.2 141.2 308 C143.9 305.9 144.5 305.8 148.8 307 C155.8 308.9 156.7 309.5 154.2 310.8 C151.7 312.2 142.3 314.8 137.5 315.5 L134 316 136.1 313.1 M122.5 311.9 C115.8 309.4 115.6 308 120.5 301.6 C124.6 296.3 125.9 296 133.3 299.1 C141.9 302.7 142.1 303.1 136.1 308.9 C133.3 311.7 130.3 314 129.5 314 C128.6 314 125.5 313 122.5 311.9 M160 308.1 C160 306.9 168.2 298.3 170.1 297.7 C171 297.3 172.5 297.6 173.4 298.3 C174.9 299.4 174.4 300 169.5 303.2 C162.6 307.8 160 309.2 160 308.1 M84.9 301.7 C82.6 299.4 80.1 296.2 79.3 294.6 C77.6 291.3 78.3 287 80.5 287 C82.9 287 94 295.9 94 297.9 C94 300.3 91.2 306 90 306 C89.4 306 87.1 304 84.9 301.7 M148.1 304.5 C146.5 303.8 144.9 302.7 144.6 302.2 C143.7 300.8 151.1 290.1 153.5 289.3 C156 288.4 157.4 288.7 162.7 291.1 C168 293.5 168.1 295.2 163 301.2 C159.4 305.4 158.5 306 155 306 C152.8 306 149.7 305.3 148.1 304.5 M104.7 302.1 C96.4 297.5 96.1 296.9 99.7 290.1 C103.5 283 105.3 282.7 114.2 287.1 C122.3 291.2 122.8 293.2 117.5 300.3 C113.3 305.8 111.9 306 104.7 302.1 M202.4 300.9 C202 299.7 201.9 298.7 202.1 298.5 C202.3 298.4 205.6 297.5 209.5 296.6 C229.1 291.8 245.9 283.4 257.8 272.5 C265.6 265.3 265.6 265.4 249.8 265.8 C228.5 266.4 219.3 264 210.5 255.5 C208 253 205.7 251 205.4 251 C205.2 251 202.6 252 199.7 253.3 C184.8 260.1 158.8 268.5 137 273.8 C107.5 280.9 96.9 282.4 74.5 282.4 C54.1 282.5 48.2 281.4 41.6 276.6 C33.9 270.9 32.2 259.4 37.4 249 C40.4 243.2 50.8 232 53.3 232 C54.2 232 55 233.5 55.4 236.6 C56 240.7 55.8 241.5 53.3 244.3 C51.7 246 49.9 247.9 49.3 248.6 C48.7 249.3 47.3 252 46.4 254.5 C44.9 258.3 44.8 259.7 45.8 262.9 C47.2 267.5 52.1 271.5 58.1 272.9 C64.1 274.3 69.3 274.2 68.4 272.8 C68 272.2 68.9 272.5 70.3 273.5 C73.9 275.8 73.6 274 69.9 270.5 C67.6 268.2 66.9 266.7 66.9 263.4 C66.9 258.4 68.7 252.9 70.3 253 C72.3 253 81 260 81.9 262.2 C82.4 263.7 82.1 265.9 80.8 268.8 C78.6 274 78.6 274 80.5 274 C81.3 274 82.4 272.8 83 271.4 C84.4 267.7 86.5 267.4 91 270.3 C94.9 272.9 98.1 273.5 103.6 272.4 C105.8 271.9 107.2 270.6 109 267.2 C112.8 260.1 113.7 259.9 122.2 264.2 C131.9 269.2 134.2 268.7 138.6 260.4 C140.4 257.1 142.8 253.8 144 253 C146 251.7 146.8 251.9 152.8 255 C156.5 256.9 159.6 258.7 159.7 259.1 C159.9 259.4 161 259.5 162.1 259.2 C163.4 258.9 165.2 256.2 167.4 251.5 C169.2 247.5 171.4 244 172.3 243.7 C173.7 243.1 182.1 247.7 183.4 249.9 C184.8 252.1 185.8 250.8 187 245.4 C187.7 242.4 188.6 239.7 189 239.4 C189.4 239.2 190 241 190.4 243.5 C191.1 247.9 191.2 248.1 193.8 247.5 C195.2 247.2 197.9 246.1 199.7 245.2 C202.8 243.6 203 243.2 203 238.1 C203 230.3 206.3 220.2 211 213.6 C213.3 210.4 214.9 207.6 214.6 207.3 C213.9 206.6 196.7 205 189.3 205 C183.6 205 182 204.2 182 201.4 C182 200.7 204 201 212 201.9 L219.5 202.6 224.6 198.3 C236.5 188.2 256.2 178.5 272.7 174.5 C276.8 173.5 279.9 172.4 279.7 172.1 C279.6 171.7 278.3 169.7 277 167.6 L274.6 163.7 268.6 164.3 C262.5 165 248.5 163.8 239.5 161.8 C231.5 160.1 223.9 155.9 218.4 150.4 C212.6 144.5 210.3 140.3 208.7 132.5 C206.6 122.5 210.9 111.8 219.5 105.9 C227.4 100.5 234 99.9 234 104.5 C234 107.6 232.5 108.3 225.5 108.9 C219.7 109.4 219.4 109.6 217.3 113.5 C210.8 125 214.5 140.3 225.8 149 C234.2 155.5 243.9 158.2 262.8 159.5 L273 160.2 273 154.1 C273 142.6 278.3 130.9 288.3 120.6 C299.6 109 308.4 103.8 325.7 98.9 C338.7 95.3 355 94.1 367 96 C374 97 375.9 97.8 378.7 100.4 C386.5 107.5 381.5 118.6 364.5 131.4 C360.6 134.3 355.2 138 352.5 139.5 C349.7 141 347 142.5 346.5 143 C344.5 144.4 326.3 152.1 319.3 154.5 C308.9 158 298.1 160.7 289 162.1 C280.2 163.4 279.9 163.9 283.7 169.7 C285 171.6 285.7 171.8 289.8 171.2 C292.4 170.8 301.5 170.5 310.1 170.5 C323.8 170.5 326 170.7 327.7 172.3 C333.6 177.6 321.8 184.2 307.5 183.5 C296.7 183 290.3 181.2 286 177.4 C282.2 174.2 251.2 185.9 241.1 194.4 C235.3 199.2 229.9 204.3 230.3 204.6 C230.5 204.8 233.6 205.8 237.1 206.9 C240.7 207.9 246 209.9 249.1 211.4 L254.6 214.1 260 211.2 C263 209.6 269.5 206.8 274.5 205 C282.6 202 284.5 201.6 294.5 201.6 C303.8 201.6 306.2 201.9 310.7 203.9 C329.1 212 324.3 233.3 300.3 250.5 C297 253 293.9 255 293.6 255 C293.2 255 290.7 256 288 257.4 C285.2 258.7 280.5 260.5 277.4 261.5 C273.9 262.6 271.2 264.2 270.1 265.7 C259.2 281.8 237.9 294.2 209 301.5 C203.1 302.9 202.9 302.9 202.4 300.9 M236 261 C228.5 259.2 221.1 254.1 218.3 248.7 C217 246.2 217 245.5 218.1 244.5 C218.8 243.8 227 238.6 236.2 233 C245.4 227.3 253.2 222.3 253.5 221.8 C254.6 220.1 256.5 221 261.6 225.8 C268.2 232 271 238.2 271 246.7 C271 250.4 270.3 254.5 269.4 256.4 C268 259.4 267.5 259.6 259.4 260.8 C249.2 262.2 241.3 262.3 236 261 M235.7 256.1 C229.2 253.7 224 249.5 224 246.8 C224 246.4 228.8 243.2 234.7 239.6 C240.6 236.1 247.9 231.5 250.9 229.5 L256.4 225.8 261.1 230.8 C264.4 234.4 266.1 237.3 266.9 240.9 C268.1 245.9 267.7 252.4 265.9 254.7 C264.7 256.2 239.1 257.4 235.7 256.1 M275.5 254 C277.7 242.6 274.6 232.3 266.5 223.6 C263.4 220.4 261 217.6 261 217.4 C261 217.3 265.7 214.8 271.5 212 C279.8 207.9 283.4 206.7 289.2 206.1 C300.7 204.8 307.4 207 310.5 213.1 C313.4 218.6 310.5 229.7 304.5 236.5 C303 238.1 301.5 239.9 301.1 240.5 C298.6 244.3 279.4 257 276 257 C275.4 257 275.2 255.7 275.5 254 M281.3 243.2 C280.4 235.1 278.6 230.4 273.8 224.1 L269.6 218.6 271.9 217 C273.2 216.2 277.4 214.2 281.3 212.7 C293.9 207.8 306.8 209.6 308.5 216.4 C310.3 223.6 302 236.2 289.2 245.8 C283.1 250.4 282.1 250 281.3 243.2 M215.6 234.7 C214.5 230.6 219.4 217.4 224.2 211.6 L226.5 208.8 232.2 210.4 C235.4 211.4 240.5 213.1 243.6 214.4 C249.3 216.7 249.3 216.7 246.9 218.2 C239.6 222.7 216.9 236 216.5 236 C216.2 236 215.8 235.4 215.6 234.7 M222.5 226.3 C222.2 226 223.4 223.1 225 219.8 C227.2 215.6 228.5 214 230 214 C232.3 214 239 216.5 239 217.4 C239 218.2 225.2 227 224 227 C223.4 227 222.7 226.7 222.5 226.3 M299.2 178.4 C298.2 178.1 296.1 177.3 294.5 176.7 L291.5 175.5 294.5 174.8 C299.2 173.8 319.3 173.9 320.9 174.9 C323.8 176.7 320.2 177.9 310.5 178.5 C305.2 178.7 300.2 178.7 299.2 178.4 M280 157.7 C280 146.5 293.6 127.2 309.6 115.8 C326.9 103.3 342.4 98.1 358.6 99.3 C372.2 100.2 377 103.6 375.6 111.3 C374.6 116.5 370 122 360.8 129.2 C343.5 142.6 319.4 152.6 291.7 158 C279.6 160.4 279.9 160.4 280 157.7 M287 152.1 C287 146.8 298.6 131 308.2 123 C316.2 116.5 328 109.7 336.8 106.6 C343.1 104.3 345.7 104 355.8 104 C369.3 104 372 105 372 110.2 C372 112.8 370.7 114.6 364.7 120.5 C360.7 124.4 354.1 129.6 350 132 C333 142.2 306.1 152.2 292.5 153.5 C287.6 153.9 287 153.7 287 152.1 M130.9 295.3 C125.7 292.7 124.2 290.9 125.4 288.7 C128.9 281.7 131 279.5 135.1 278.3 C139.2 277.1 139.8 277.2 144.7 279.7 C147.6 281.2 150.2 283.2 150.5 284.2 C151 285.8 146.4 293.8 143.3 296.7 C141.1 298.7 136.4 298.2 130.9 295.3 M173.5 295.9 C170.6 294.6 170.1 290.9 172.5 289 C173.3 288.3 174 287.1 174 286.4 C174 285.7 175.5 283.5 177.4 281.5 C180.8 277.9 180.8 277.8 183.9 279.4 C187.7 281.4 187.7 283.2 184.3 288.4 C178.2 297.4 177.8 297.7 173.5 295.9 M88.8 289.5 L85.7 287.1 90.6 286.4 C93.3 286.1 96.3 285.6 97.3 285.3 C98.9 284.8 99 285.1 98 286.8 C96.6 289.5 94.2 292 93 292 C92.4 292 90.6 290.9 88.8 289.5 M159.5 286.7 C154.1 284 153.7 281.4 157.8 275.5 C159.8 272.5 161.7 271.2 165.2 270.1 C169.5 268.7 170.3 268.8 173.5 270.3 C175.8 271.4 177 272.6 177 274 C177 276.1 171.6 286.7 169.8 288.2 C168.2 289.6 164 289 159.5 286.7 M115.7 285 L112.5 283.1 115 282.5 C121.9 280.9 126.4 280.1 126.7 280.4 C127.2 280.9 121 287 120 287 C119.4 287 117.5 286.1 115.7 285 M146.3 277.1 C144.2 276.1 145.3 275.3 150.8 274.1 C155.2 273.1 155.9 273.8 153.5 276.4 C151.8 278.1 148.9 278.4 146.3 277.1 M184 276 C180.7 273.8 180.2 271.1 181.9 266.5 C182.8 264.1 184.2 263.2 189.6 261.6 C191.6 260.9 191.7 261.2 191.3 265.6 C190.7 271.5 189.2 276.8 188 277.5 C187.4 277.7 185.6 277.1 184 276 M98.7 271.3 C98 271 94.6 268.9 91.2 266.7 C86.7 263.8 85 262.1 85 260.6 C85.1 258 91 246.9 93 245.7 C95.2 244.3 108.8 252.5 109.6 255.6 C110 257.3 109.1 259.7 106.1 264.5 C101.7 271.4 100.7 272.3 98.7 271.3 M55.3 266.7 C50.6 263.9 49.6 260.4 51.9 255.3 C52.9 253.2 54.4 250.8 55.3 250.1 C57.1 248.6 57.7 249.6 60 258 C60.6 260.3 61.8 263.3 62.6 264.6 C65.7 269.2 61.4 270.5 55.3 266.7 M175 267 C175 266.4 175.4 266 175.9 266 C176.4 266 177.6 265.6 178.6 265.3 C180.2 264.7 180.3 264.8 179.2 266.3 C177.8 268.1 175 268.6 175 267 M123.7 261.8 C112.8 254.5 112.5 254.1 116.4 247 C117.8 244.5 119.3 241.5 119.9 240.3 C121.9 235.7 125.5 235.4 131.4 239.2 C132.5 239.9 135.1 241.5 137.2 242.7 C141.8 245.5 142 247.9 138.3 254.7 C132.9 264.5 130 265.9 123.7 261.8 M64 259.6 C64 259.4 63.1 255.7 62 251.3 C59 239.7 59.2 238.8 63.5 243 C67.4 246.8 68 250.6 65.5 256.5 C64.6 258.4 64 259.8 64 259.6 M74.9 252.7 C72.7 251 70.6 248.4 70.3 247.1 C69 242.2 73.3 231 76.4 231 C79.2 231 88.8 237.4 89.4 239.8 C90.2 242.8 83.7 254.8 81 255.5 C79.7 255.8 77.5 254.8 74.9 252.7 M152 251.3 C145.3 247.2 144.2 245.2 146.1 240.6 C148.4 234.9 153.1 228 154.6 228 C155.5 228 159 229.8 162.5 232.1 C168 235.6 169 236.7 169 239.1 C169 242.2 165.1 250.6 162.5 253.3 C160.2 255.7 158.6 255.4 152 251.3 M357.4 251 C356.4 249.2 358.9 246.1 365.7 240.6 C375.5 232.7 384.6 228.6 387.4 230.9 C388.1 231.4 390.4 232.3 392.5 232.8 L396.5 233.6 389.4 238.2 C374.8 247.7 359.1 254 357.4 251 M99.7 244.5 C93 240 92.2 238.3 94.6 233.3 C97.5 227 102 221 103.6 221 C105.3 221 115.4 226.3 118.2 228.8 C120.8 231 120.4 233.1 116 240.4 C112.5 246.1 111.5 247 108.5 247.5 C105.6 247.9 103.9 247.3 99.7 244.5 M177 242 C174.9 240.4 172.8 238.2 172.5 237.1 C171.8 235 175.9 222.8 177.5 222.3 C178.1 222.1 180.5 223.7 182.8 226 C186.5 229.7 186.9 230.6 186.9 234.8 C186.6 244.5 183.5 246.8 177 242 M61.9 238.6 C59.3 235.7 58.8 234.4 58.7 229.8 C58.7 223.2 60.2 219 62.8 219 C63.8 219 66.6 220.3 68.9 222 C72.6 224.7 73 225.4 72.5 227.8 C71.5 231.7 67.1 240.9 66 241.5 C65.4 241.7 63.6 240.4 61.9 238.6 M195.6 241.2 C194.8 239.7 191.7 228.4 191.3 225.5 C191 223.8 190.1 220.1 189.3 217.2 C188.5 214.3 188 211.4 188.2 210.8 C188.5 209.7 205.4 209.5 207.2 210.6 C207.7 210.9 207.1 212.8 205.9 214.8 C202.2 221.1 200 227.7 199.9 233.2 C199.8 236.1 199.6 239.2 199.4 240.2 C199 241.9 196.3 242.6 195.6 241.2 M132.9 236.5 C129.6 234.7 126.2 232.6 125.4 231.9 C122.9 229.8 123.6 226.4 128.2 218.5 C132.3 211.6 134.4 211.5 144 217.2 C151.1 221.4 151.5 224.2 146.5 232.3 C141.5 240.3 140.3 240.7 132.9 236.5 M81 229.4 C77.4 226.9 76 225.1 76 223.5 C76 220.2 82.3 208.5 84.4 208.1 C85.3 207.9 89 209.3 92.5 211.1 C100.3 215.1 100.5 216.1 95 225.3 C89.9 233.7 87.9 234.3 81 229.4 M163.7 229.3 C162.5 228.4 159.8 226.5 157.7 225.1 C153.1 222.1 153 220.1 157 212.6 C160.8 205.7 162.5 205.4 169.2 210.7 C174.7 215.1 175.6 217.4 173.9 222.6 C171.2 231 168.4 232.8 163.7 229.3 M181.6 222.2 C179.8 220.1 178 217.6 177.6 216.6 C176.7 214.1 179 205.2 180.1 207.2 C181.5 209.8 186 224.9 185.5 225.5 C185.2 225.7 183.5 224.2 181.6 222.2 M110.2 220.2 C101.7 215.5 101.4 214.1 107 205.5 C110.4 200.2 111.7 199 113.8 199 C117.2 199 125.9 203.1 128.4 205.8 C130.5 208.3 130.3 209 124.2 218.7 C122 222.2 120.3 224 119 224 C117.9 224 113.9 222.3 110.2 220.2 M69.7 219.3 C65.1 216.9 62 213.5 62 211.1 C62.1 208.1 66.8 199.1 69 197.7 C71.1 196.4 80.3 200.9 80.8 203.4 C81 204.5 79.8 208.4 78.1 212.2 C75 218.8 72.6 220.8 69.7 219.3 M143.2 213.2 C134.8 208.2 134 207.5 134 205.2 C134 202.5 139.5 192.3 141.4 191.6 C144.1 190.6 158 199.2 158 201.9 C158 203.8 153.3 213.8 151.8 215.2 C150.3 216.5 148 216 143.2 213.2 M170.3 208.9 C169.3 207.8 167.1 206 165.3 204.8 C161.1 202.2 160.3 199.3 162.6 194.4 C165.4 188.6 167.3 187.9 171 191.5 C172.7 193.1 175 196.4 176.2 198.7 C178 202.7 178.1 203.1 176.6 206.4 C174.6 210.8 172.5 211.6 170.3 208.9 M91 207 C86.2 204.6 85 203.5 85 201.6 C85 199 92 188.5 94.4 187.6 C95.2 187.3 98.8 188.2 102.4 189.6 C107.9 191.7 109 192.5 109 194.5 C109 198.9 100.7 210 97.5 210 C97.2 210 94.3 208.6 91 207 M617.5 200.4 C618.7 199.1 619 195.4 619 180.8 C619 163.2 618.9 162.9 616.7 162 C615.1 161.3 616.3 161.1 621.5 161.1 C625.3 161.2 627.4 161.4 626.2 161.7 L623.9 162.1 624.2 180.8 L624.5 199.5 629.8 199.8 C633.5 200 635.9 199.6 637.7 198.4 C640.1 196.8 640.2 196.8 639.6 198.4 C639.2 199.3 639 200.5 639 201 C639 201.5 633.8 202 627.5 202 C617 202 616.1 201.8 617.5 200.4 M648.4 201.4 C650.8 200.5 651 197.8 650.7 179.5 L650.5 162.5 648 161.8 C646.6 161.5 650.7 161.1 657.2 161 C663.7 161 668.9 161.3 668.9 161.7 C668.9 163.5 667.2 165.1 666.5 164.1 C666.1 163.4 663.4 163 660.4 163 L655 163 655 171 L655 179.1 661.5 178.8 C667.7 178.5 668 178.5 668 180.8 C668 182.7 667.6 183 666.2 182.4 C665.2 181.9 662.3 181.4 659.7 181.2 L655 180.8 655 189.2 C655 194.4 655.4 198 656.2 198.8 C657.7 200.3 665.4 200.3 668.2 198.8 C670 197.9 670.2 198 669.6 199.4 C669.2 200.3 669 201.3 669 201.5 C669 201.8 664 202 658 202 C651.9 202 647.6 201.7 648.4 201.4 M63 200.4 C63 199.2 66.1 193.8 66.6 194.3 C67.1 194.8 64.3 201 63.5 201 C63.2 201 63 200.7 63 200.4 M120.5 197.8 C116.9 196.1 113.7 193.8 113.4 192.8 C112.3 189.3 120 179.9 123.9 180 C128.1 180.1 137.4 185.2 137.8 187.6 C138.1 189.8 132.4 200 130.9 200 C130.4 200 129.3 200.2 128.5 200.5 C127.6 200.7 124 199.5 120.5 197.8 M75.1 196 C72.9 194.9 70.9 193.4 70.6 192.6 C69.9 190.6 73.2 185.6 77.4 182.4 L81.1 179.6 86.5 181.3 C89.5 182.3 92 183.6 92 184.4 C92 185.5 88.8 190.3 87 192 C86.7 192.2 85.6 193.7 84.7 195.2 C82.6 198.5 80.3 198.6 75.1 196 M661.5 195.3 C660.7 194.2 660.9 185.9 661.7 186 C662.1 186 663.7 187.1 665.3 188.5 C668 190.9 668.1 191.1 666.5 193.5 C665 195.8 662.5 196.7 661.5 195.3 M152.9 193.7 C152.4 193.1 150 191.6 147.7 190.5 C141.6 187.5 141 186 144.2 180.3 C147.7 173.8 150.5 173.5 157.7 178.7 C160.5 180.7 163.1 183 163.4 183.8 C163.7 184.5 163 187.3 161.9 190 C160.2 194.4 159.6 195 157 195 C155.3 195 153.5 194.4 152.9 193.7 M104.7 187.8 C103.5 187.2 101 186 99.2 185.3 C94.9 183.4 95.1 181.2 99.9 176.5 C103.8 172.7 103.9 172.7 109.7 173.3 C116.4 174 119 174.7 119 176.1 C119 178.1 112.5 186.8 110.3 187.9 C107.4 189.2 107.4 189.2 104.7 187.8 M129 179 C125.6 177.3 123 175.4 123 174.5 C123 173.7 124.3 171.4 126.1 169.5 C129.6 165.5 132.1 165.1 139.2 167.5 C146.2 169.9 146.8 171.1 143.3 176.2 C141.8 178.5 140.1 180.8 139.7 181.2 C138.3 182.6 134.9 181.9 129 179 M87.9 179.2 C86.8 178.8 85.7 178.1 85.6 177.6 C85.4 176.6 99.9 170.8 101.2 171.2 C102.4 171.6 94.2 178.9 92 179.5 C90.9 179.7 89 179.6 87.9 179.2 M152.4 173.4 C150.9 172.5 150 171.6 150.2 171.3 C150.5 171.1 152.1 171.8 153.8 172.9 C157.5 175.3 156.2 175.7 152.4 173.4 M661.5 174.3 C660.4 172.8 661 168 662.3 168 C664.4 168 667.3 171.7 666.6 173.4 C666 174.9 662.4 175.5 661.5 174.3 M74.2 169.6 C69.9 167.3 64.7 164.6 62.5 163.8 L58.5 162.3 64.2 161.5 C71.6 160.5 81 161.6 81 163.5 C81 164.3 81.6 166.5 82.5 168.4 C84.9 174.2 83 174.5 74.2 169.6 M87 170.5 C87 169.7 88.2 168.1 89.7 167 C91.2 165.8 94.3 163.1 96.5 161 L100.5 157.2 108.4 158.5 C117.7 160.2 120 160.8 120 162 C120 163 118.3 163.5 110.7 164.9 C104.8 165.9 97.3 168.2 93.8 170 C90.3 171.8 87 172.1 87 170.5 M111.7 171.4 C105.8 170.3 106.8 169.3 115.1 167.6 C126.5 165.3 126.8 165.4 123.6 169 C120.9 172.1 118.4 172.6 111.7 171.4 M84.5 167.1 C83.3 164.9 83.3 155.3 84.5 148.7 C86.1 140.5 89.8 126.1 90.9 124.2 C91.9 122.3 114.1 144.8 117.4 151 C118.8 153.7 120 156.4 120 156.9 C120 158.1 114.5 157.5 105.8 155.3 L100.2 154 96.1 158 C89 164.8 85 168 84.5 167.1 M121.9 156.3 C120.8 150.7 120.8 150.6 123.9 148 C126.6 145.7 138.2 139 139.5 139 C139.8 139 137.6 142.1 134.6 146 C131.7 149.8 128.3 155 127.1 157.5 C125.9 159.9 124.5 162 124 162 C123.4 162 122.5 159.4 121.9 156.3 M57.5 156.9 C56.1 155.7 51.3 153.3 46.9 151.5 C33.4 146 34.9 145.5 52.2 149.9 C65.9 153.4 68 154.3 68 157 C68 159.8 60.9 159.7 57.5 156.9 M71 157.6 C71 154.4 59.3 141.6 51 135.5 L48.5 133.7 53.8 134.3 C59 134.9 59.5 135.2 66.8 143 C71 147.5 75.5 152.9 76.7 155.1 L79 159 75 159 C72.3 159 71 158.5 71 157.6 M79 153.2 C75.2 141.6 74.3 126.7 75.9 100.5 C76.9 85.4 78.5 72.4 78.8 76.5 C78.9 77.1 81.9 81.5 85.5 86.3 C89 91.1 92 95.4 92 95.8 C92 96.1 93.9 99 96.2 102.2 C98.5 105.3 101.6 109.8 103 112.1 C104.3 114.4 105.9 116.7 106.5 117.3 C108 119 114.6 133 115.7 137 C118.4 146 118.3 145.9 103.8 131.7 C96.1 124.1 89.7 118 89.6 118.1 C89.1 118.8 86.8 128.1 84.4 138.2 C83.1 144.1 81.5 150.5 81 152.5 L80 156 79 153.2 M69.3 142.7 C67.3 140.4 61.8 133.3 57.1 127 C44.2 109.7 33.5 99.6 19.7 91.6 C17.1 90.1 15 88.6 15 88.3 C14.9 87.2 26.4 89.2 33.9 91.6 C42.2 94.3 48.9 97.8 59.1 104.6 C66.1 109.3 66.1 109.2 67.5 119 C68.4 124.8 72.7 141.7 74 144 C76.5 148.6 73.8 147.9 69.3 142.7 M120 142.2 C120 139.6 120.4 135.9 121 133.9 C121.6 132 122.5 127.5 123 124 C124 117.5 125.3 115.3 130.2 111.8 L132.9 109.9 131.3 113.6 C128.4 120.6 126 131.4 126 137.6 C126 143 125.7 143.9 123.5 145.3 C122.1 146.2 120.7 147 120.5 147 C120.2 147 120 144.8 120 142.2 M51.2 143.4 C48 142.1 44.6 140.5 43.5 140 C42.4 139.5 39 138.1 36 137 L30.5 134.9 36 135.4 C44.7 136.2 51.2 138.6 55.3 142.4 C59.6 146.6 58.9 146.8 51.2 143.4 M128.5 138.9 C128.1 136.6 133.2 129.8 141.1 122.4 C148.7 115.3 150 114.7 145.7 120.5 C143.7 123.2 140.6 128.2 138.8 131.6 C137 135 134.5 138.3 133.3 138.9 C132 139.5 130.5 140.2 130 140.5 C129.4 140.7 128.8 140 128.5 138.9 M115.8 128.2 C114.7 122.4 107.4 101.3 105.9 99.4 C104.5 97.7 114.3 77.1 120.2 69.5 C126.3 61.6 134.6 54 137.2 53.9 C137.5 53.9 135.7 57.9 133.4 62.7 C127 75.5 124.4 85.7 122.5 106 C119.9 133.3 118 139.6 115.8 128.2 M51.7 131.2 C50.5 130.8 45.6 127.9 41 124.8 C36.3 121.7 30.4 118.3 28 117.2 C20.6 114.1 15.6 112.1 13.1 111.4 C11.8 111.1 11 110.5 11.3 110.3 C12.2 109.4 28 113.1 33.7 115.6 C47 121.4 51.9 124.2 54.4 127.4 C55.8 129.3 57 131.1 57 131.4 C57 132.2 54.4 132.1 51.7 131.2 M71 124.2 C67.5 107.2 65.2 85.5 63.4 53 C61.5 16.6 61.2 19.1 66.2 28 C68.6 32.1 71.3 37 72.3 39 C73.3 40.9 75.8 45.6 78 49.5 C82.5 57.4 100.6 93.6 104.4 102 C107.1 108.1 109.9 115.9 109.9 117.4 C109.9 117.9 105 110.9 98.9 101.9 C86.3 83.1 76.7 69.8 76.2 70.4 C75.2 71.3 73 102.8 73 115.2 C73 122.8 72.7 129 72.5 129 C72.2 129 71.5 126.8 71 124.2 M130.6 123.2 C132 117.3 134.2 113.8 139.7 108.4 C147.9 100.4 150.2 99.5 145.5 106.1 C143.3 109 141.1 111.9 140.5 112.5 C139.9 113 138.4 115.1 137.2 117.2 C135.9 119.3 133.8 122.1 132.5 123.5 L130 126 130.6 123.2 M124.6 107.7 C125 103.9 126.2 100.8 129.1 96.6 C131.2 93.4 133 90.6 133 90.3 C133 88.1 149.2 71 151.4 71 C152.1 71 149.8 74.2 147.9 76 C146 77.6 139.6 88 134.2 98.2 C130.8 104.6 127.1 110.6 126 111.5 C124 112.9 124 112.8 124.6 107.7 M62.5 104.1 C62.2 103.6 58.9 101.3 55.1 99 C48.2 94.9 48.2 94.8 44.4 85.7 C39.2 73.2 34.4 64.3 30.1 59.1 C22.9 50.4 22.8 50.2 29.5 53.8 C35.1 56.8 48 66.6 58.1 75.5 C62.5 79.4 62.7 79.6 63.3 87 C63.7 91.1 64.2 96.8 64.5 99.7 C64.8 102.9 64.6 105 64 105 C63.4 105 62.7 104.6 62.5 104.1 M98 83.1 C95.2 77.1 93 71.3 93 70.2 C93 66.9 101.4 42.8 105.4 35 C109 27.6 112.1 23.2 110.5 27.5 C109.1 31.4 108.7 48.6 110 57.5 C112.7 77.7 112.9 75.6 108.2 85.2 C105.9 90 103.7 94 103.5 94 C103.2 94 100.7 89 98 83.1 "/>
  <path d="M407.7 303.7 C404.5 301.9 404.3 298.4 407.2 295.7 C408.6 294.5 411.4 289.2 413.5 284 C418.5 271.5 420.6 269.7 425 274.3 C427.3 276.7 427.4 276.7 429.9 274.9 C432.2 273.2 434.4 273.1 457 273.4 C470.4 273.6 482.4 273.8 483.5 273.9 C484.6 274 488 273.7 491.1 273.4 C498.5 272.5 503.1 274.1 506.6 278.7 C510.4 283.7 510.6 291.6 507 297.3 C504.4 301.6 498.4 304.9 493.2 304.9 C489.5 305 483.4 302.7 480.8 300.3 C479.2 298.8 478.9 298.9 477.9 301.2 C476.4 304.4 475 304.8 467.6 304.2 C460.7 303.6 459 301.7 461.4 297.1 C463.1 293.7 463 285.8 461.2 285.2 C459.7 284.7 459.3 285.8 458.4 292.4 C457.3 301.1 449 306.7 440.7 304.3 C438.7 303.7 435.6 303.8 432.6 304.4 C428.6 305.2 427.3 305.1 424.8 303.7 C422.6 302.4 421.3 302.2 419.9 303 C416.6 304.6 410.1 305 407.7 303.7 M441 300.4 C436.6 299.1 435 295.3 435 286.4 C435 279.3 434.7 278 433.2 277.6 C432.2 277.4 433.7 277.1 436.4 277.1 C440.8 277 441.1 277.1 439.5 278.3 C437.9 279.5 437.7 280.7 438.2 287.5 C438.6 294 439 295.6 440.9 297.1 C443.8 299.5 447.2 299.5 449.3 297.1 C451.4 294.8 451.7 278.4 449.7 277.6 C449 277.3 450.2 277.1 452.3 277 C455.7 277 455.9 277.1 454.5 278.5 C453.4 279.7 453 282.1 453 287.8 C453 294.9 452.7 295.8 450.5 297.8 C447.6 300.2 443.9 301.2 441 300.4 M486.5 299.4 C478.6 295.7 477.9 283.6 485.4 279 C491.9 275 500.4 277.2 503.5 283.8 C505.8 288.5 504.7 292.9 500.4 296.8 C496.2 300.6 491.3 301.6 486.5 299.4 M488.4 297.9 C486 296.2 484 291.3 484 287 C484 283.8 484.6 282.3 486.7 280.3 C493.5 274 503 283.1 500 293.1 C498.4 298.4 492.6 300.8 488.4 297.9 M491.1 293.7 C488 289.4 488.9 283 492.4 283 C495.8 283 497.2 285.2 496.5 289.9 C496.1 292.8 495.4 294.1 494 294.5 C492.9 294.7 491.6 294.4 491.1 293.7 M411 299.2 C411 298.7 411.5 297.5 412.2 296.4 C412.9 295.3 414.4 292 415.4 289.1 C416.4 286.1 418 282.1 419 280.2 C420.6 276.8 420.7 276.7 421.8 278.7 C422.4 279.9 423 281.3 423 281.9 C423 282.5 423.8 284.9 424.9 287.2 C427.1 292.1 430 299 430 299.6 C430 299.8 429.1 300 428.1 300 C426.9 300 425.7 298.6 424.7 296 C423.3 292.3 422.8 292 419.6 292 C416.3 292 416 292.2 415 296 C414.4 298.4 413.4 300 412.5 300 C411.6 300 411 299.6 411 299.2 M417 290 C417 288.3 419.2 284 420.1 284 C420.6 284 421 284.1 421 284.2 C421 284.3 421.4 285.9 422 287.7 C422.9 290.9 422.9 291 420 291 C418.3 291 417 290.5 417 290 M466 289.3 L466 278.7 462 279.1 C459.2 279.4 458 279.1 458 278.2 C458 277.3 460.5 277 468 277 C475.6 277 478 277.3 477.7 278.2 C477.4 279 475.9 279.3 473.6 279.1 L470 278.8 470 289.4 C470 299.3 469.8 300 468 300 C466.1 300 466 299.3 466 289.3 M444.5 294.3 C444.2 293.9 444 290.7 444 287.2 C444 281.7 444.2 280.9 445.6 281.1 C447 281.4 447.3 282.5 447.1 287.2 C447 292.5 445.7 295.9 444.5 294.3 "/>
  <path d="M517.5 303.4 C515.3 302.1 515 301.1 515 297.1 C515 294.5 515.4 291.9 516 291.3 C516.8 290.5 516.8 289 516 286.1 C513.9 278.3 518.4 273 527.1 273 C532.6 273 535 274.4 535 277.9 C535 283.3 538 282.4 539.3 276.7 C539.8 274.9 540.8 273.8 542.5 273.4 C546.1 272.4 547.9 273.5 549.6 277.7 C552.7 285.5 554.1 288 555 287.4 C556.4 286.5 556.1 282.7 554.4 280.5 C552.5 278 552.6 276.5 554.5 274.5 C556.3 272.7 565.9 272.3 569 274 C571.3 275.2 571.6 279.2 569.4 281 C568.3 281.9 567.9 283.7 568.2 287.3 C568.5 293.4 571 295.1 571 289.2 C571 283.8 574.7 277 578.9 274.8 C583.7 272.3 592.4 272.3 596.7 275 C600.6 277.3 602 277.5 602 275.6 C602 274.1 604 273 606.5 273 C607.2 273 609.1 274.1 610.8 275.5 C614.1 278.3 616 278.6 616 276.5 C616 274.3 619.3 273 624.8 273 C628.8 273 630.1 273.4 631.3 275.1 C632.7 277 632.7 277.6 631.4 280 C630.5 281.9 630 285.9 630 291.7 C630 305 626.7 308.2 619.5 301.9 L616 298.8 615 301.4 C614.3 303.1 613.2 304 611.7 304 C610.5 304 607.8 304.2 605.9 304.6 C603.2 305 601.8 304.7 600.5 303.4 C598.8 301.7 598.5 301.7 593.8 303.4 C588.6 305.3 582.6 305 579 302.7 C577.5 301.8 576.7 301.9 575.4 303 C574.3 303.9 570 304.5 561.9 304.8 C552 305.1 549.5 304.9 547.5 303.5 C545.2 302.1 544.7 302.1 542.5 303.4 C538.9 305.6 521 305.6 517.5 303.4 M519.5 300.4 C518.6 300.1 518 298.6 518 297.2 L518 294.5 519.5 296.7 C521.4 299.4 525.5 299.7 526.8 297.2 C528.1 294.7 527.2 293 522.8 288.9 C518.3 284.7 517.7 280.9 521.2 278.5 C524.1 276.5 530 276.4 530 278.5 C530 280.2 528.8 280.4 527.3 278.9 C525.6 277.2 522 278.8 522 281 C522 282.1 524 285 526.6 287.4 C530.6 291.2 531.1 292.2 530.5 294.6 C529.2 299.7 524.3 302.2 519.5 300.4 M583.1 300.4 C582.1 300.1 579.8 298.6 578 297.1 C575 294.7 574.7 293.9 574.7 288.9 C574.7 283.9 575 283.3 578.5 280.2 C588.8 271.3 603.4 281.7 597.4 293.7 C595 298.6 588.1 301.9 583.1 300.4 M581.9 297.2 C579.4 295.1 577.9 289 578.7 284.2 C579.1 281.4 579.9 280.4 582.7 279.3 C585.6 278.1 586.8 278 589.2 279.1 C594.6 281.3 596.8 291.2 593 296.3 C590.5 299.5 585.1 299.9 581.9 297.2 M584.3 291.5 C582.9 288.7 582.8 287.5 583.8 285.5 C586.6 279.1 593.5 285.9 590.9 292.6 C589.5 296.1 586.3 295.6 584.3 291.5 M534.3 298.7 C534.6 298 536.7 292.8 539 287.1 L543.3 276.7 545.3 281.1 C546.3 283.5 547.8 286.6 548.4 288 C549.1 289.3 550 291.8 550.4 293.5 C550.8 295.1 551.8 297.2 552.7 298.2 C554.1 299.8 554.1 300 551.8 300 C549.7 300 549 299.2 548 296 C546.7 292.2 546.4 292 543 292 C540 292 539 292.4 538.1 294.5 C537.5 295.9 537 297.7 537 298.5 C537 299.3 536.3 300 535.5 300 C534.6 300 534.1 299.4 534.3 298.7 M540.5 289.4 C540.7 288.5 541.2 286.6 541.6 285.2 C542.2 282.7 542.3 282.7 544.1 286.5 C545.1 288.6 546 290.5 546 290.6 C546 290.8 544.6 291 543 291 C540.7 291 540.1 290.6 540.5 289.4 M559.1 289.4 C559.2 281.2 559 278.6 557.9 277.9 C556.9 277.3 557.9 277 561 277 C563.4 277.1 564.9 277.3 564.2 277.6 C563.3 278 563 281 563 288 C563 297.9 563 297.9 565.6 298.6 C567.1 298.9 569.1 298.7 570.1 298.1 C571.6 297.2 572 297.2 572 298.4 C572 299.6 570.6 300 565.5 300 L559 300 559.1 289.4 M604.3 297.7 C604.5 296.5 604.8 291.2 604.8 286 L605 276.5 613.9 286 L622.9 295.5 622.9 287.4 C622.9 282.4 622.5 278.9 621.8 278.2 C620.8 277.2 621.3 277 624 277 C626.6 277 627.1 277.2 626 277.9 C624.8 278.6 624.3 281.5 624 289.5 L623.5 300.2 615.1 291.8 L606.8 283.5 607.4 291.7 C607.9 299.5 607.8 300 606 300 C604.4 300 604 299.4 604.3 297.7 "/>
  <path d="M364 204.8 C362.3 202.8 362.8 199.5 365 197.7 C366.8 196.1 367 194.7 367 181.6 C367 167.3 366.9 167.2 364.5 165.5 C361.8 163.8 361.1 160.2 363.2 158.1 C364.6 156.7 381.9 156.5 386.9 157.9 C388.7 158.5 391.3 159.9 392.6 161.1 C393.9 162.3 395.1 163.1 395.2 162.9 C395.4 162.6 396.3 161.2 397.3 159.7 C398.9 157.1 399.4 157 406 157 C416.7 157 419.3 159.4 415.2 165.7 C413.7 168.1 413.5 170.4 413.7 182.6 C414 196 414.2 196.7 416.3 197.7 C417.5 198.3 419.4 198.3 420.7 197.8 C422.9 197 423 196.8 423 178.4 C423 159.2 423.5 156 426.9 156 C428.7 156 436 163 448.5 176.7 C451.1 179.6 453.6 181.7 454.1 181.4 C454.6 181.1 455 177.9 455 174.3 C455 168.3 454.7 167.5 451.8 164.8 C448.9 162.1 448.8 161.8 450.2 159.7 C451.5 157.8 452.7 157.4 458.5 157.2 C462.2 157 466.6 157.4 468.1 158 C470.1 158.8 471.3 158.9 472.2 158.1 C472.9 157.5 479.2 157 486.4 156.9 C497.8 156.7 499.4 156.8 500.6 158.4 C502.2 160.7 501.3 168.7 499.2 171.2 C497.8 172.8 497.8 173.1 499.4 174.9 C501 176.7 501.1 177.7 500.2 183.2 C499.3 188.5 499.4 189.7 500.7 191.2 C503.3 194.1 505.2 192.8 507 186.9 C510.5 175.8 516.1 161.4 517.8 159 C519.9 156.1 523.1 155.2 524.7 157.2 C525.3 157.9 527.9 163.9 530.4 170.5 C537.6 189.1 540.1 195 541.7 196.6 C544.9 199.7 545.4 197.6 545.7 182 C546 167.6 545.9 166.6 544 165.3 C541.7 163.7 541.3 160 543.1 158.2 C544.8 156.5 562.4 156.7 567.3 158.4 C569.4 159.1 572 160.5 573 161.5 C574.1 162.5 575.1 163.1 575.3 162.9 C575.4 162.6 576.3 161.2 577.3 159.7 C579 157 579.2 157 588.2 157 C599 157 603.3 158 607.4 161.6 C609.7 163.7 610.4 165.2 610.7 169.4 C611.4 177 608.6 182 601.8 185.3 C598.9 186.8 596 188 595.3 188 C594.4 188 594 189.4 594 192.3 C594 195.9 594.3 196.8 596.5 197.8 C599.5 199.2 599.9 203.4 597 204.9 C593.8 206.6 580.4 206.2 578.5 204.4 C576.4 202.3 576.5 200.6 579 198.5 C580.8 196.8 581 195.4 581 181.4 C581 168.4 580.7 166.1 579.4 165.6 C576.3 164.4 575.7 164.9 576.4 168.3 C577.2 172.8 574.7 179.6 570.9 183 C569.2 184.5 565.8 186.3 563.4 187 C559.1 188.2 559 188.4 559 192.1 C559 195.1 559.5 196.3 561.5 197.5 C564.2 199.3 564.8 203 562.6 204.9 C561.6 205.6 556.2 205.9 545.4 205.7 C532.6 205.5 529.5 205.2 528.9 204 C528.5 203.1 527.4 199.8 526.3 196.5 C524.6 190.9 524.2 190.4 521.2 190.1 C518.4 189.9 517.8 190.2 516.9 192.6 C516.1 194.7 516.1 196.3 516.9 198.7 C517.7 201 517.8 202.4 517 203.9 C515.9 205.9 515 206 495.1 206 C480.3 206 474 205.6 473.2 204.8 C471.5 203.1 471.6 199.4 473.5 198 C474.7 196.9 475 193.8 475 181.3 L475 165.9 472.5 164.8 C470.4 163.8 469.6 163.9 468 165.4 C466.2 167.1 466 168.5 466.2 185 C466.3 204.3 465.9 205.9 461.1 206 C459 206 456 203.4 446.9 193.9 C440.5 187.3 435 182.2 434.6 182.6 C434.3 183 434 186 434 189.4 C434 195 434.2 195.7 437.1 198.2 C440 200.8 440.1 201.1 438.7 203.2 C437.3 205.3 436.5 205.4 428.3 205.3 C417.8 205.1 419.6 205.1 408.1 205.3 C399.6 205.4 398.6 205.3 397.3 203.4 C396.1 201.5 396.1 201 397.8 198.9 C399.4 196.8 399.7 194.3 400.1 181.6 C400.4 167 400.4 166.7 398.1 165.2 L395.8 163.6 396.5 168.6 C397 172.6 396.7 174.4 395.2 177.5 C392.6 182.6 390.5 184.4 384.5 186.7 C379.9 188.5 379.4 189 379.1 192.3 C378.9 195.2 379.3 196.1 381.4 197.5 C384 199.2 384.7 202.6 383 204.8 C382.3 205.5 378.8 206 373.5 206 C368.1 206 364.6 205.5 364 204.8 M368.5 200.4 C369.7 199 369.9 195.8 369.7 180.7 L369.5 162.5 367 161.8 C365.6 161.3 369.3 161.1 375.3 161.3 C385.2 161.6 386.3 161.8 388.4 164 C394.1 169.8 390.5 180.8 382.5 182.4 C379.7 183 379.6 182.9 381.9 181.9 C385.5 180.4 386.9 177.9 386.9 173 C386.9 165.8 383.3 162.5 376.2 162.8 C374 162.9 374 163 374 179.4 C374 196.1 374.6 200.3 377.4 201.4 C378.2 201.7 376.3 202 373 202 C367.5 202 367.1 201.8 368.5 200.4 M401.2 201.3 C403.7 200 403.9 198.2 403.9 180.7 C403.9 163.2 403.9 162.9 401.7 162 C400 161.3 401.1 161.1 406 161.1 C409.5 161.1 411.8 161.4 411 161.7 C410.1 162 409.1 162.7 408.7 163.3 C408.3 164 408 172.5 408 182.3 C408.1 198.8 408.3 200.1 410 201 C411.4 201.7 410.4 202 406 202 C402.7 202 400.5 201.7 401.2 201.3 M423.2 201.3 C425.7 200 425.9 198.2 425.9 179.7 C425.9 169.4 426.2 161 426.6 161 C426.9 161 428 161.8 428.9 162.9 C430.7 165 449.4 185.3 454.6 190.7 C456.3 192.5 457.9 194 458.3 194 C459.1 194 458.9 180.5 458.1 170 C457.5 163.1 457.3 162.5 455 161.8 C453.3 161.4 454.8 161.1 459 161.1 C463.8 161.1 464.9 161.3 463.2 162 C461 162.9 461 163.1 461 182.4 C461 193.2 460.6 202 460.2 202 C459.5 202 451.2 193.3 432.7 173.5 L428 168.5 428.1 175 C428.1 178.5 428.5 185.7 428.8 190.9 C429.4 199.5 429.6 200.4 431.7 201.2 C433.3 201.7 432.1 202 428 202 C424.7 202 422.5 201.7 423.2 201.3 M476.4 201.4 C478.8 200.5 479 197.8 478.7 179.5 L478.5 162.5 476 161.8 C474.6 161.5 478.7 161.1 485.1 161 L496.7 161 496.2 163.4 C495.8 165.6 495.6 165.7 494.3 164.4 C493.4 163.5 490.9 163 487.9 163 L483 163 483 171 L483 179.1 489.5 178.8 C494.6 178.5 495.9 178.7 495.5 179.8 C495.2 180.5 494.9 181.9 494.9 182.8 C494.9 184.1 494.7 184.2 494 183.1 C493.6 182.3 490.9 181.5 488.1 181.2 L483 180.7 483 189.8 C483 198.8 483 198.9 485.5 199.6 C486.9 199.9 490.1 199.9 492.5 199.6 C496 199.1 497 199.3 497 200.5 C497 201.7 495 202 486 202 C479.9 202 475.6 201.7 476.4 201.4 M504 201 C505.1 200.4 506.3 199.2 506.6 198.2 C506.9 197.2 507.5 195.6 508 194.5 C509.3 191.6 516.9 170.3 518.7 164.5 L520.2 159.5 521.7 163 C522.5 164.9 523.6 167.2 524.1 168.2 C524.6 169.2 525.7 172.1 526.5 174.7 C527.4 177.3 528.7 180.8 529.4 182.5 C530.1 184.1 531.9 188.5 533.5 192.3 C535 196 537.2 199.7 538.4 200.5 C540.2 201.8 540.1 202 535.7 202 C531.8 202 531 201.6 531 200.2 C531 199.2 529.9 195.6 528.7 192.2 L526.5 186 520.2 186 L513.8 186 512.2 189.7 C511.3 191.8 510.7 195.4 510.8 197.7 L511 202 506.5 202 C502.8 202 502.3 201.8 504 201 M515 183 C515 180.5 519.3 169 520 169.7 C521 170.7 524.9 181.1 524.9 182.7 C524.9 183.5 523.3 184 520 184 C517.2 184 515 183.5 515 183 M547.3 201.4 C548.1 201.1 549 199.9 549.3 198.6 C550.2 195.5 550.1 164.7 549.2 163.3 C548.8 162.7 547.6 162 546.5 161.7 C545.4 161.4 548.1 161.1 552.6 161.1 C561.6 160.9 566.6 162.2 569.2 165.2 C571.1 167.4 571.5 172.4 570 176.4 C568.9 179.1 563.5 183 561 182.9 C559.6 182.8 559.6 182.7 561 182.2 C567.4 179.9 569.2 170.9 564.3 165.8 C562.2 163.6 560.6 163 557.8 163 L554 163 554 180.7 C554 190.5 554.3 199 554.7 199.6 C555.1 200.2 556.2 201 557.2 201.3 C558.2 201.7 556 202 552.5 202 C548.9 202 546.6 201.7 547.3 201.4 M582.5 201.4 C583.7 200.9 584 197.8 584 181.8 C584 163.1 583.9 162.9 581.7 161.9 C580.1 161.2 582.2 161 589.2 161.2 C597.1 161.5 599.4 161.9 601.7 163.6 C605.1 166.1 606.5 169.7 605.5 173.5 C604.7 176.9 598.8 183 596.3 182.9 C594.8 182.9 595 182.7 596.9 181.7 C602.3 179 603.5 171.6 599.4 166.2 C597.1 163.2 596.3 162.9 592.8 163.1 L588.7 163.5 588.8 181.4 C588.9 191.3 589.3 199.7 589.7 200.1 C590.1 200.4 591.2 201 592.2 201.4 C593.2 201.7 591 202 587.5 202 C583.9 202 581.6 201.7 582.5 201.4 M488.5 195.3 C487.5 194 488 187.1 489.1 186.4 C489.7 186 491.3 186.9 492.7 188.3 C495 190.6 495.2 191.2 494.1 193.4 C493 195.8 489.7 196.9 488.5 195.3 M379.5 177.3 C378.6 176.1 378.9 168.1 379.9 167.5 C381.4 166.6 384 169.9 384 172.8 C384 176.7 381.1 179.5 379.5 177.3 M559.5 177.3 C559.2 176.9 559 174.7 559 172.3 C559 168.7 559.3 168 560.8 168 C562.9 168 564 169.8 564 173.3 C564 176.8 561 179.3 559.5 177.3 M594.5 177.3 C594.2 176.9 594 174.7 594 172.3 C594 167.2 596.3 166.2 598 170.7 C599.5 174.6 596.6 180.1 594.5 177.3 M488.4 173.5 C487.4 171.2 488.3 168.5 490.1 168.2 C492 167.8 495.5 172.3 494.5 173.9 C493.7 175.5 489 175.2 488.4 173.5 "/>
 </g>
 <g fill="#86744e" fill-rule="evenodd">
  <path d="M313.8 333.4 C312.8 332 314.9 329.5 328.1 316.6 C349.1 296 378.5 268.1 400 248.3 C414.1 235.4 420.9 228.6 420.5 228.2 C420.2 227.9 418.3 229 416.2 230.6 C414.2 232.2 410 235.1 407 237 C403.9 238.8 401.2 240.7 401 241 C400 242.2 388.4 249.3 382 252.7 C368.3 259.9 355.4 263.2 348.5 261.2 C346.1 260.5 343 256.7 341.7 252.7 C341.6 252.3 338.1 253.7 333.9 255.9 C322.3 262.1 310 265.1 304.6 263 C302.2 262.1 301.9 261.5 302.1 258.7 C302.4 256 302.9 255.4 305.2 255.1 C307 254.9 308.3 255.5 309.1 256.9 C310.7 259.5 313.1 259.5 320.3 257 C330.9 253.4 350.7 238.2 354.5 230.8 C356.6 226.8 356.4 224 353.9 224 C351.8 224 342.9 228.2 337.3 232 L334.1 234 333.4 231.9 C333.1 230.8 332.9 229.7 333.1 229.5 C333.6 229.1 345.1 222.8 348.4 221.1 C352.3 219.1 360.1 218.5 362.8 219.9 C364.3 220.7 365 222 365 224 L365 227 368.7 225.3 C377.9 221.4 390.4 219 394.4 220.6 C396.2 221.3 396.5 225 394.8 226.7 C393.3 228.2 389.3 228.3 388.5 227 C386.5 223.7 374.8 227.6 365.4 234.5 C354.4 242.7 350.1 248.4 351.1 253.6 C351.4 255.1 352.6 255.5 357 255.7 C364.6 256.1 374.9 251.9 390.5 242.1 C401 235.4 416.1 225.1 419.7 221.9 C424 218.2 432.5 214.9 437.6 215 C440.5 215 443 215.4 443 215.8 C443 216.3 439.2 220.4 434.7 224.9 L426.5 233.1 434 229.1 C446.2 222.5 457.1 219.3 461.6 221 C462.9 221.5 464.5 223 465.1 224.4 C467.5 229.7 463.9 234.9 450.7 245.2 C438.2 254.9 436 257 436 259 C436 264.4 458.8 254.9 479.5 240.9 C486.1 236.5 493.6 231.4 496.2 229.6 C498.8 227.9 500.9 225.9 500.9 225.2 C501 223.1 508.2 215.7 511.7 214.3 C515.1 212.9 520 213.9 520 216 C520 216.7 518.2 218.8 516 220.8 C513.8 222.8 512 224.7 512 225 C512 225.3 514.7 225.1 518 224.6 C524.8 223.4 526.9 224.1 528.3 228.2 C530.3 233.7 526.8 238.5 512.7 249.4 C500.9 258.4 499.6 261.7 508.5 260 C516.6 258.4 529.8 252.1 542.6 243.7 C547.2 240.7 548 239.9 552.5 234.4 C556.5 229.4 568.1 221.8 577 218.4 C585.3 215.2 597 213.9 599.4 215.9 C601.5 217.7 601.3 221.2 599 224.2 C597.3 226.3 586.6 234.2 585 234.5 C584.7 234.6 583.1 235.2 581.5 235.9 C576 238.1 567 241 561.9 242.1 C556.3 243.3 553.6 246.1 553.6 251.1 C553.6 255.3 555.1 256.2 561.7 256.2 C568.6 256.1 580.1 252.3 587.3 247.9 C589.9 246.3 592.2 245 592.4 245 C593.2 244.9 621.8 225.4 628 220.7 C631.5 217.9 635.3 214.6 636.3 213.3 C637.3 212 638.8 211 639.5 211 C641.1 211 641.5 214.9 640.1 216.5 C639.6 217 638.7 220.8 638 225 C636.7 233.4 632.3 247.7 630.4 250 C629.8 250.8 628.7 252.5 628.1 253.7 C627 255.6 627.1 255.8 628.7 255.2 C630.3 254.6 640.8 248.6 649.4 243.5 C660.8 236.6 683.1 220.8 687.7 216.3 C690.7 213.3 693.5 211 694 211 C695.8 211 696.1 213.2 694.6 216.3 C693.8 218 692.8 221.9 692.4 225 C691 236.3 686.8 249.2 683.5 251.9 C682.6 252.6 682 253.8 682 254.5 C682 256.2 693.3 250.4 703.9 243.4 C710.6 239 713 238.5 713 241.4 C713 243.4 707.6 247.1 695 253.6 C681.9 260.4 673.8 263.5 666 264.8 C660.9 265.7 659 265.6 652.8 264.4 C648.7 263.5 645.5 259.5 645.5 255 L645.5 251.3 636.5 255.7 C620.8 263.6 608.3 266.8 600.5 265 C595.4 263.8 591 259.1 591 254.8 C591 252.7 590.6 251.9 589.7 252.3 C575 258.9 570.2 260.3 561 260.7 C552.1 261.1 551.3 261 548.7 258.8 C547 257.2 545.8 255 545.4 252.2 C544.7 248.1 543.7 246.9 542.5 248.9 C541.5 250.5 515.6 262.8 511 263.9 C504.4 265.4 499.3 265.2 497.5 263.4 C495.5 261.4 495.5 254.7 497.5 250.9 C499 247.9 510.4 238.5 517.9 234 C520.1 232.7 522 231.2 522 230.7 C522 230.3 517.6 230.2 512.2 230.6 C504.7 231.1 501.8 231.7 499.5 233.4 C497.8 234.5 495.7 235.9 494.8 236.5 C493.8 237 491.3 238.6 489.3 240 C468.3 254.4 445.7 265 436 265 C431.5 265 428 262.3 428 258.9 C428 252.6 434.2 245.5 449.6 234.2 C454.7 230.5 458.9 227 458.9 226.6 C459 224.5 447.4 227 440.3 230.5 C419.8 240.6 413.5 246 345.5 312 C325.5 331.3 322.4 333.9 318.5 334.5 C316 334.8 314.6 334.5 313.8 333.4 M599 259 C596.5 256.7 596.5 256.2 599 254.1 C601.1 252.4 601.7 249.6 600.6 247 C600 245.6 603.8 242.6 613.8 236.5 C614.7 235.9 618.2 233.5 621.7 231.1 C625.1 228.7 628 227.3 628 228 C628 230.1 622.9 244.3 621.6 246 C620.9 246.8 619.8 248.6 619.1 250 C614.4 259.2 604 263.9 599 259 M653.5 259.1 C651.5 256.7 651.6 255.6 654 253.5 C656.2 251.4 656.5 249 654.7 247 C653.7 246 653.7 245.6 654.7 245.2 C655.4 245 661.7 241 668.7 236.3 C675.7 231.6 681.7 227.6 682.1 227.4 C683.1 226.7 680.5 235.8 677.9 242 C672.8 254 667.2 259.6 659.5 260.5 C655.9 260.8 654.6 260.6 653.5 259.1 M563.7 235.4 C568.7 230.7 582.5 221.6 587.5 219.8 C599.7 215.3 595.7 225.1 582.5 232 C576.7 235 565.4 239 562.5 239 C560 239 560.1 238.9 563.7 235.4 "/>
  <path d="M114.4 317.4 C113 316.8 113 316.6 114.5 314.9 C116.6 312.5 117.7 312.5 125.4 314.7 C130.5 316.1 131.1 316.5 129.2 317.2 C126.6 318.1 116.7 318.2 114.4 317.4 "/>
  <path d="M103.7 315.1 C103 314.6 100.7 313.3 98.5 312.1 C96.3 311 94.1 309.4 93.6 308.7 C92.3 306.7 95.7 301.9 98.3 302 C101.4 302 112.4 308.4 112.8 310.4 C113.6 314.3 107.3 317.6 103.7 315.1 "/>
  <path d="M136.1 313.1 C137.2 311.5 139.5 309.2 141.2 308 C143.9 305.9 144.5 305.8 148.8 307 C155.8 308.9 156.7 309.5 154.2 310.8 C151.7 312.2 142.3 314.8 137.5 315.5 L134 316 136.1 313.1 "/>
  <path d="M122.5 311.9 C115.8 309.4 115.6 308 120.5 301.6 C124.6 296.3 125.9 296 133.3 299.1 C141.9 302.7 142.1 303.1 136.1 308.9 C133.3 311.7 130.3 314 129.5 314 C128.6 314 125.5 313 122.5 311.9 "/>
  <path d="M160 308.1 C160 306.9 168.2 298.3 170.1 297.7 C171 297.3 172.5 297.6 173.4 298.3 C174.9 299.4 174.4 300 169.5 303.2 C162.6 307.8 160 309.2 160 308.1 "/>
  <path d="M84.9 301.7 C82.6 299.4 80.1 296.2 79.3 294.6 C77.6 291.3 78.3 287 80.5 287 C82.9 287 94 295.9 94 297.9 C94 300.3 91.2 306 90 306 C89.4 306 87.1 304 84.9 301.7 "/>
  <path d="M148.1 304.5 C146.5 303.8 144.9 302.7 144.6 302.2 C143.7 300.8 151.1 290.1 153.5 289.3 C156 288.4 157.4 288.7 162.7 291.1 C168 293.5 168.1 295.2 163 301.2 C159.4 305.4 158.5 306 155 306 C152.8 306 149.7 305.3 148.1 304.5 "/>
  <path d="M104.7 302.1 C96.4 297.5 96.1 296.9 99.7 290.1 C103.5 283 105.3 282.7 114.2 287.1 C122.3 291.2 122.8 293.2 117.5 300.3 C113.3 305.8 111.9 306 104.7 302.1 "/>
  <path d="M202.4 300.9 C202 299.7 201.9 298.7 202.1 298.5 C202.3 298.4 205.6 297.5 209.5 296.6 C229.1 291.8 245.9 283.4 257.8 272.5 C265.6 265.3 265.6 265.4 249.8 265.8 C228.5 266.4 219.3 264 210.5 255.5 C208 253 205.7 251 205.4 251 C205.2 251 202.6 252 199.7 253.3 C184.8 260.1 158.8 268.5 137 273.8 C107.5 280.9 96.9 282.4 74.5 282.4 C54.1 282.5 48.2 281.4 41.6 276.6 C33.9 270.9 32.2 259.4 37.4 249 C40.4 243.2 50.8 232 53.3 232 C54.2 232 55 233.5 55.4 236.6 C56 240.7 55.8 241.5 53.3 244.3 C51.7 246 49.9 247.9 49.3 248.6 C48.7 249.3 47.3 252 46.4 254.5 C44.9 258.3 44.8 259.7 45.8 262.9 C47.2 267.5 52.1 271.5 58.1 272.9 C64.1 274.3 69.3 274.2 68.4 272.8 C68 272.2 68.9 272.5 70.3 273.5 C73.9 275.8 73.6 274 69.9 270.5 C67.6 268.2 66.9 266.7 66.9 263.4 C66.9 258.4 68.7 252.9 70.3 253 C72.3 253 81 260 81.9 262.2 C82.4 263.7 82.1 265.9 80.8 268.8 C78.6 274 78.6 274 80.5 274 C81.3 274 82.4 272.8 83 271.4 C84.4 267.7 86.5 267.4 91 270.3 C94.9 272.9 98.1 273.5 103.6 272.4 C105.8 271.9 107.2 270.6 109 267.2 C112.8 260.1 113.7 259.9 122.2 264.2 C131.9 269.2 134.2 268.7 138.6 260.4 C140.4 257.1 142.8 253.8 144 253 C146 251.7 146.8 251.9 152.8 255 C156.5 256.9 159.6 258.7 159.7 259.1 C159.9 259.4 161 259.5 162.1 259.2 C163.4 258.9 165.2 256.2 167.4 251.5 C169.2 247.5 171.4 244 172.3 243.7 C173.7 243.1 182.1 247.7 183.4 249.9 C184.8 252.1 185.8 250.8 187 245.4 C187.7 242.4 188.6 239.7 189 239.4 C189.4 239.2 190 241 190.4 243.5 C191.1 247.9 191.2 248.1 193.8 247.5 C195.2 247.2 197.9 246.1 199.7 245.2 C202.8 243.6 203 243.2 203 238.1 C203 230.3 206.3 220.2 211 213.6 C213.3 210.4 214.9 207.6 214.6 207.3 C213.9 206.6 196.7 205 189.3 205 C183.6 205 182 204.2 182 201.4 C182 200.7 204 201 212 201.9 L219.5 202.6 224.6 198.3 C236.5 188.2 256.2 178.5 272.7 174.5 C276.8 173.5 279.9 172.4 279.7 172.1 C279.6 171.7 278.3 169.7 277 167.6 L274.6 163.7 268.6 164.3 C262.5 165 248.5 163.8 239.5 161.8 C231.5 160.1 223.9 155.9 218.4 150.4 C212.6 144.5 210.3 140.3 208.7 132.5 C206.6 122.5 210.9 111.8 219.5 105.9 C227.4 100.5 234 99.9 234 104.5 C234 107.6 232.5 108.3 225.5 108.9 C219.7 109.4 219.4 109.6 217.3 113.5 C210.8 125 214.5 140.3 225.8 149 C234.2 155.5 243.9 158.2 262.8 159.5 L273 160.2 273 154.1 C273 142.6 278.3 130.9 288.3 120.6 C299.6 109 308.4 103.8 325.7 98.9 C338.7 95.3 355 94.1 367 96 C374 97 375.9 97.8 378.7 100.4 C386.5 107.5 381.5 118.6 364.5 131.4 C360.6 134.3 355.2 138 352.5 139.5 C349.7 141 347 142.5 346.5 143 C344.5 144.4 326.3 152.1 319.3 154.5 C308.9 158 298.1 160.7 289 162.1 C280.2 163.4 279.9 163.9 283.7 169.7 C285 171.6 285.7 171.8 289.8 171.2 C292.4 170.8 301.5 170.5 310.1 170.5 C323.8 170.5 326 170.7 327.7 172.3 C333.6 177.6 321.8 184.2 307.5 183.5 C296.7 183 290.3 181.2 286 177.4 C282.2 174.2 251.2 185.9 241.1 194.4 C235.3 199.2 229.9 204.3 230.3 204.6 C230.5 204.8 233.6 205.8 237.1 206.9 C240.7 207.9 246 209.9 249.1 211.4 L254.6 214.1 260 211.2 C263 209.6 269.5 206.8 274.5 205 C282.6 202 284.5 201.6 294.5 201.6 C303.8 201.6 306.2 201.9 310.7 203.9 C329.1 212 324.3 233.3 300.3 250.5 C297 253 293.9 255 293.6 255 C293.2 255 290.7 256 288 257.4 C285.2 258.7 280.5 260.5 277.4 261.5 C273.9 262.6 271.2 264.2 270.1 265.7 C259.2 281.8 237.9 294.2 209 301.5 C203.1 302.9 202.9 302.9 202.4 300.9 M236 261 C228.5 259.2 221.1 254.1 218.3 248.7 C217 246.2 217 245.5 218.1 244.5 C218.8 243.8 227 238.6 236.2 233 C245.4 227.3 253.2 222.3 253.5 221.8 C254.6 220.1 256.5 221 261.6 225.8 C268.2 232 271 238.2 271 246.7 C271 250.4 270.3 254.5 269.4 256.4 C268 259.4 267.5 259.6 259.4 260.8 C249.2 262.2 241.3 262.3 236 261 M275.5 254 C277.7 242.6 274.6 232.3 266.5 223.6 C263.4 220.4 261 217.6 261 217.4 C261 217.3 265.7 214.8 271.5 212 C279.8 207.9 283.4 206.7 289.2 206.1 C300.7 204.8 307.4 207 310.5 213.1 C313.4 218.6 310.5 229.7 304.5 236.5 C303 238.1 301.5 239.9 301.1 240.5 C298.6 244.3 279.4 257 276 257 C275.4 257 275.2 255.7 275.5 254 M215.6 234.7 C214.5 230.6 219.4 217.4 224.2 211.6 L226.5 208.8 232.2 210.4 C235.4 211.4 240.5 213.1 243.6 214.4 C249.3 216.7 249.3 216.7 246.9 218.2 C239.6 222.7 216.9 236 216.5 236 C216.2 236 215.8 235.4 215.6 234.7 M299.2 178.4 C298.2 178.1 296.1 177.3 294.5 176.7 L291.5 175.5 294.5 174.8 C299.2 173.8 319.3 173.9 320.9 174.9 C323.8 176.7 320.2 177.9 310.5 178.5 C305.2 178.7 300.2 178.7 299.2 178.4 M280 157.7 C280 146.5 293.6 127.2 309.6 115.8 C326.9 103.3 342.4 98.1 358.6 99.3 C372.2 100.2 377 103.6 375.6 111.3 C374.6 116.5 370 122 360.8 129.2 C343.5 142.6 319.4 152.6 291.7 158 C279.6 160.4 279.9 160.4 280 157.7 "/>
  <path d="M441 300.4 C436.6 299.1 435 295.3 435 286.4 C435 279.3 434.7 278 433.2 277.6 C432.2 277.4 433.7 277.1 436.4 277.1 C440.8 277 441.1 277.1 439.5 278.3 C437.9 279.5 437.7 280.7 438.2 287.5 C438.6 294 439 295.6 440.9 297.1 C443.8 299.5 447.2 299.5 449.3 297.1 C451.4 294.8 451.7 278.4 449.7 277.6 C449 277.3 450.2 277.1 452.3 277 C455.7 277 455.9 277.1 454.5 278.5 C453.4 279.7 453 282.1 453 287.8 C453 294.9 452.7 295.8 450.5 297.8 C447.6 300.2 443.9 301.2 441 300.4 "/>
  <path d="M486.5 299.4 C478.6 295.7 477.9 283.6 485.4 279 C491.9 275 500.4 277.2 503.5 283.8 C505.8 288.5 504.7 292.9 500.4 296.8 C496.2 300.6 491.3 301.6 486.5 299.4 M488.4 297.9 C486 296.2 484 291.3 484 287 C484 283.8 484.6 282.3 486.7 280.3 C493.5 274 503 283.1 500 293.1 C498.4 298.4 492.6 300.8 488.4 297.9 "/>
  <path d="M519.5 300.4 C518.6 300.1 518 298.6 518 297.2 L518 294.5 519.5 296.7 C521.4 299.4 525.5 299.7 526.8 297.2 C528.1 294.7 527.2 293 522.8 288.9 C518.3 284.7 517.7 280.9 521.2 278.5 C524.1 276.5 530 276.4 530 278.5 C530 280.2 528.8 280.4 527.3 278.9 C525.6 277.2 522 278.8 522 281 C522 282.1 524 285 526.6 287.4 C530.6 291.2 531.1 292.2 530.5 294.6 C529.2 299.7 524.3 302.2 519.5 300.4 "/>
  <path d="M583.1 300.4 C582.1 300.1 579.8 298.6 578 297.1 C575 294.7 574.7 293.9 574.7 288.9 C574.7 283.9 575 283.3 578.5 280.2 C588.8 271.3 603.4 281.7 597.4 293.7 C595 298.6 588.1 301.9 583.1 300.4 M581.9 297.2 C579.4 295.1 577.9 289 578.7 284.2 C579.1 281.4 579.9 280.4 582.7 279.3 C585.6 278.1 586.8 278 589.2 279.1 C594.6 281.3 596.8 291.2 593 296.3 C590.5 299.5 585.1 299.9 581.9 297.2 "/>
  <path d="M411 299.2 C411 298.7 411.5 297.5 412.2 296.4 C412.9 295.3 414.4 292 415.4 289.1 C416.4 286.1 418 282.1 419 280.2 C420.6 276.8 420.7 276.7 421.8 278.7 C422.4 279.9 423 281.3 423 281.9 C423 282.5 423.8 284.9 424.9 287.2 C427.1 292.1 430 299 430 299.6 C430 299.8 429.1 300 428.1 300 C426.9 300 425.7 298.6 424.7 296 C423.3 292.3 422.8 292 419.6 292 C416.3 292 416 292.2 415 296 C414.4 298.4 413.4 300 412.5 300 C411.6 300 411 299.6 411 299.2 M417 290 C417 288.3 419.2 284 420.1 284 C420.6 284 421 284.1 421 284.2 C421 284.3 421.4 285.9 422 287.7 C422.9 290.9 422.9 291 420 291 C418.3 291 417 290.5 417 290 "/>
  <path d="M466 289.3 L466 278.7 462 279.1 C459.2 279.4 458 279.1 458 278.2 C458 277.3 460.5 277 468 277 C475.6 277 478 277.3 477.7 278.2 C477.4 279 475.9 279.3 473.6 279.1 L470 278.8 470 289.4 C470 299.3 469.8 300 468 300 C466.1 300 466 299.3 466 289.3 "/>
  <path d="M534.3 298.7 C534.6 298 536.7 292.8 539 287.1 L543.3 276.7 545.3 281.1 C546.3 283.5 547.8 286.6 548.4 288 C549.1 289.3 550 291.8 550.4 293.5 C550.8 295.1 551.8 297.2 552.7 298.2 C554.1 299.8 554.1 300 551.8 300 C549.7 300 549 299.2 548 296 C546.7 292.2 546.4 292 543 292 C540 292 539 292.4 538.1 294.5 C537.5 295.9 537 297.7 537 298.5 C537 299.3 536.3 300 535.5 300 C534.6 300 534.1 299.4 534.3 298.7 M540.5 289.4 C540.7 288.5 541.2 286.6 541.6 285.2 C542.2 282.7 542.3 282.7 544.1 286.5 C545.1 288.6 546 290.5 546 290.6 C546 290.8 544.6 291 543 291 C540.7 291 540.1 290.6 540.5 289.4 "/>
  <path d="M559.1 289.4 C559.2 281.2 559 278.6 557.9 277.9 C556.9 277.3 557.9 277 561 277 C563.4 277.1 564.9 277.3 564.2 277.6 C563.3 278 563 281 563 288 C563 297.9 563 297.9 565.6 298.6 C567.1 298.9 569.1 298.7 570.1 298.1 C571.6 297.2 572 297.2 572 298.4 C572 299.6 570.6 300 565.5 300 L559 300 559.1 289.4 "/>
  <path d="M604.3 297.7 C604.5 296.5 604.8 291.2 604.8 286 L605 276.5 613.9 286 L622.9 295.5 622.9 287.4 C622.9 282.4 622.5 278.9 621.8 278.2 C620.8 277.2 621.3 277 624 277 C626.6 277 627.1 277.2 626 277.9 C624.8 278.6 624.3 281.5 624 289.5 L623.5 300.2 615.1 291.8 L606.8 283.5 607.4 291.7 C607.9 299.5 607.8 300 606 300 C604.4 300 604 299.4 604.3 297.7 "/>
  <path d="M130.9 295.3 C125.7 292.7 124.2 290.9 125.4 288.7 C128.9 281.7 131 279.5 135.1 278.3 C139.2 277.1 139.8 277.2 144.7 279.7 C147.6 281.2 150.2 283.2 150.5 284.2 C151 285.8 146.4 293.8 143.3 296.7 C141.1 298.7 136.4 298.2 130.9 295.3 "/>
  <path d="M173.5 295.9 C170.6 294.6 170.1 290.9 172.5 289 C173.3 288.3 174 287.1 174 286.4 C174 285.7 175.5 283.5 177.4 281.5 C180.8 277.9 180.8 277.8 183.9 279.4 C187.7 281.4 187.7 283.2 184.3 288.4 C178.2 297.4 177.8 297.7 173.5 295.9 "/>
  <path d="M88.8 289.5 L85.7 287.1 90.6 286.4 C93.3 286.1 96.3 285.6 97.3 285.3 C98.9 284.8 99 285.1 98 286.8 C96.6 289.5 94.2 292 93 292 C92.4 292 90.6 290.9 88.8 289.5 "/>
  <path d="M159.5 286.7 C154.1 284 153.7 281.4 157.8 275.5 C159.8 272.5 161.7 271.2 165.2 270.1 C169.5 268.7 170.3 268.8 173.5 270.3 C175.8 271.4 177 272.6 177 274 C177 276.1 171.6 286.7 169.8 288.2 C168.2 289.6 164 289 159.5 286.7 "/>
  <path d="M115.7 285 L112.5 283.1 115 282.5 C121.9 280.9 126.4 280.1 126.7 280.4 C127.2 280.9 121 287 120 287 C119.4 287 117.5 286.1 115.7 285 "/>
  <path d="M146.3 277.1 C144.2 276.1 145.3 275.3 150.8 274.1 C155.2 273.1 155.9 273.8 153.5 276.4 C151.8 278.1 148.9 278.4 146.3 277.1 "/>
  <path d="M184 276 C180.7 273.8 180.2 271.1 181.9 266.5 C182.8 264.1 184.2 263.2 189.6 261.6 C191.6 260.9 191.7 261.2 191.3 265.6 C190.7 271.5 189.2 276.8 188 277.5 C187.4 277.7 185.6 277.1 184 276 "/>
  <path d="M98.7 271.3 C98 271 94.6 268.9 91.2 266.7 C86.7 263.8 85 262.1 85 260.6 C85.1 258 91 246.9 93 245.7 C95.2 244.3 108.8 252.5 109.6 255.6 C110 257.3 109.1 259.7 106.1 264.5 C101.7 271.4 100.7 272.3 98.7 271.3 "/>
  <path d="M175 267 C175 266.4 175.4 266 175.9 266 C176.4 266 177.6 265.6 178.6 265.3 C180.2 264.7 180.3 264.8 179.2 266.3 C177.8 268.1 175 268.6 175 267 "/>
  <path d="M123.7 261.8 C112.8 254.5 112.5 254.1 116.4 247 C117.8 244.5 119.3 241.5 119.9 240.3 C121.9 235.7 125.5 235.4 131.4 239.2 C132.5 239.9 135.1 241.5 137.2 242.7 C141.8 245.5 142 247.9 138.3 254.7 C132.9 264.5 130 265.9 123.7 261.8 "/>
  <path d="M64 259.6 C64 259.4 63.1 255.7 62 251.3 C59 239.7 59.2 238.8 63.5 243 C67.4 246.8 68 250.6 65.5 256.5 C64.6 258.4 64 259.8 64 259.6 "/>
  <path d="M74.9 252.7 C72.7 251 70.6 248.4 70.3 247.1 C69 242.2 73.3 231 76.4 231 C79.2 231 88.8 237.4 89.4 239.8 C90.2 242.8 83.7 254.8 81 255.5 C79.7 255.8 77.5 254.8 74.9 252.7 "/>
  <path d="M152 251.3 C145.3 247.2 144.2 245.2 146.1 240.6 C148.4 234.9 153.1 228 154.6 228 C155.5 228 159 229.8 162.5 232.1 C168 235.6 169 236.7 169 239.1 C169 242.2 165.1 250.6 162.5 253.3 C160.2 255.7 158.6 255.4 152 251.3 "/>
  <path d="M99.7 244.5 C93 240 92.2 238.3 94.6 233.3 C97.5 227 102 221 103.6 221 C105.3 221 115.4 226.3 118.2 228.8 C120.8 231 120.4 233.1 116 240.4 C112.5 246.1 111.5 247 108.5 247.5 C105.6 247.9 103.9 247.3 99.7 244.5 "/>
  <path d="M177 242 C174.9 240.4 172.8 238.2 172.5 237.1 C171.8 235 175.9 222.8 177.5 222.3 C178.1 222.1 180.5 223.7 182.8 226 C186.5 229.7 186.9 230.6 186.9 234.8 C186.6 244.5 183.5 246.8 177 242 "/>
  <path d="M61.9 238.6 C59.3 235.7 58.8 234.4 58.7 229.8 C58.7 223.2 60.2 219 62.8 219 C63.8 219 66.6 220.3 68.9 222 C72.6 224.7 73 225.4 72.5 227.8 C71.5 231.7 67.1 240.9 66 241.5 C65.4 241.7 63.6 240.4 61.9 238.6 "/>
  <path d="M132.9 236.5 C129.6 234.7 126.2 232.6 125.4 231.9 C122.9 229.8 123.6 226.4 128.2 218.5 C132.3 211.6 134.4 211.5 144 217.2 C151.1 221.4 151.5 224.2 146.5 232.3 C141.5 240.3 140.3 240.7 132.9 236.5 "/>
  <path d="M81 229.4 C77.4 226.9 76 225.1 76 223.5 C76 220.2 82.3 208.5 84.4 208.1 C85.3 207.9 89 209.3 92.5 211.1 C100.3 215.1 100.5 216.1 95 225.3 C89.9 233.7 87.9 234.3 81 229.4 "/>
  <path d="M163.7 229.3 C162.5 228.4 159.8 226.5 157.7 225.1 C153.1 222.1 153 220.1 157 212.6 C160.8 205.7 162.5 205.4 169.2 210.7 C174.7 215.1 175.6 217.4 173.9 222.6 C171.2 231 168.4 232.8 163.7 229.3 "/>
  <path d="M181.6 222.2 C179.8 220.1 178 217.6 177.6 216.6 C176.7 214.1 179 205.2 180.1 207.2 C181.5 209.8 186 224.9 185.5 225.5 C185.2 225.7 183.5 224.2 181.6 222.2 "/>
  <path d="M110.2 220.2 C101.7 215.5 101.4 214.1 107 205.5 C110.4 200.2 111.7 199 113.8 199 C117.2 199 125.9 203.1 128.4 205.8 C130.5 208.3 130.3 209 124.2 218.7 C122 222.2 120.3 224 119 224 C117.9 224 113.9 222.3 110.2 220.2 "/>
  <path d="M69.7 219.3 C65.1 216.9 62 213.5 62 211.1 C62.1 208.1 66.8 199.1 69 197.7 C71.1 196.4 80.3 200.9 80.8 203.4 C81 204.5 79.8 208.4 78.1 212.2 C75 218.8 72.6 220.8 69.7 219.3 "/>
  <path d="M143.2 213.2 C134.8 208.2 134 207.5 134 205.2 C134 202.5 139.5 192.3 141.4 191.6 C144.1 190.6 158 199.2 158 201.9 C158 203.8 153.3 213.8 151.8 215.2 C150.3 216.5 148 216 143.2 213.2 "/>
  <path d="M170.3 208.9 C169.3 207.8 167.1 206 165.3 204.8 C161.1 202.2 160.3 199.3 162.6 194.4 C165.4 188.6 167.3 187.9 171 191.5 C172.7 193.1 175 196.4 176.2 198.7 C178 202.7 178.1 203.1 176.6 206.4 C174.6 210.8 172.5 211.6 170.3 208.9 "/>
  <path d="M91 207 C86.2 204.6 85 203.5 85 201.6 C85 199 92 188.5 94.4 187.6 C95.2 187.3 98.8 188.2 102.4 189.6 C107.9 191.7 109 192.5 109 194.5 C109 198.9 100.7 210 97.5 210 C97.2 210 94.3 208.6 91 207 "/>
  <path d="M368.5 200.4 C369.7 199 369.9 195.8 369.7 180.7 L369.5 162.5 367 161.8 C365.6 161.3 369.3 161.1 375.3 161.3 C385.2 161.6 386.3 161.8 388.4 164 C394.1 169.8 390.5 180.8 382.5 182.4 C379.7 183 379.6 182.9 381.9 181.9 C385.5 180.4 386.9 177.9 386.9 173 C386.9 165.8 383.3 162.5 376.2 162.8 C374 162.9 374 163 374 179.4 C374 196.1 374.6 200.3 377.4 201.4 C378.2 201.7 376.3 202 373 202 C367.5 202 367.1 201.8 368.5 200.4 "/>
  <path d="M401.2 201.3 C403.7 200 403.9 198.2 403.9 180.7 C403.9 163.2 403.9 162.9 401.7 162 C400 161.3 401.1 161.1 406 161.1 C409.5 161.1 411.8 161.4 411 161.7 C410.1 162 409.1 162.7 408.7 163.3 C408.3 164 408 172.5 408 182.3 C408.1 198.8 408.3 200.1 410 201 C411.4 201.7 410.4 202 406 202 C402.7 202 400.5 201.7 401.2 201.3 "/>
  <path d="M423.2 201.3 C425.7 200 425.9 198.2 425.9 179.7 C425.9 169.4 426.2 161 426.6 161 C426.9 161 428 161.8 428.9 162.9 C430.7 165 449.4 185.3 454.6 190.7 C456.3 192.5 457.9 194 458.3 194 C459.1 194 458.9 180.5 458.1 170 C457.5 163.1 457.3 162.5 455 161.8 C453.3 161.4 454.8 161.1 459 161.1 C463.8 161.1 464.9 161.3 463.2 162 C461 162.9 461 163.1 461 182.4 C461 193.2 460.6 202 460.2 202 C459.5 202 451.2 193.3 432.7 173.5 L428 168.5 428.1 175 C428.1 178.5 428.5 185.7 428.8 190.9 C429.4 199.5 429.6 200.4 431.7 201.2 C433.3 201.7 432.1 202 428 202 C424.7 202 422.5 201.7 423.2 201.3 "/>
  <path d="M476.4 201.4 C478.8 200.5 479 197.8 478.7 179.5 L478.5 162.5 476 161.8 C474.6 161.5 478.7 161.1 485.1 161 L496.7 161 496.2 163.4 C495.8 165.6 495.6 165.7 494.3 164.4 C493.4 163.5 490.9 163 487.9 163 L483 163 483 171 L483 179.1 489.5 178.8 C494.6 178.5 495.9 178.7 495.5 179.8 C495.2 180.5 494.9 181.9 494.9 182.8 C494.9 184.1 494.7 184.2 494 183.1 C493.6 182.3 490.9 181.5 488.1 181.2 L483 180.7 483 189.8 C483 198.8 483 198.9 485.5 199.6 C486.9 199.9 490.1 199.9 492.5 199.6 C496 199.1 497 199.3 497 200.5 C497 201.7 495 202 486 202 C479.9 202 475.6 201.7 476.4 201.4 "/>
  <path d="M504 201 C505.1 200.4 506.3 199.2 506.6 198.2 C506.9 197.2 507.5 195.6 508 194.5 C509.3 191.6 516.9 170.3 518.7 164.5 L520.2 159.5 521.7 163 C522.5 164.9 523.6 167.2 524.1 168.2 C524.6 169.2 525.7 172.1 526.5 174.7 C527.4 177.3 528.7 180.8 529.4 182.5 C530.1 184.1 531.9 188.5 533.5 192.3 C535 196 537.2 199.7 538.4 200.5 C540.2 201.8 540.1 202 535.7 202 C531.8 202 531 201.6 531 200.2 C531 199.2 529.9 195.6 528.7 192.2 L526.5 186 520.2 186 L513.8 186 512.2 189.7 C511.3 191.8 510.7 195.4 510.8 197.7 L511 202 506.5 202 C502.8 202 502.3 201.8 504 201 M515 183 C515 180.5 519.3 169 520 169.7 C521 170.7 524.9 181.1 524.9 182.7 C524.9 183.5 523.3 184 520 184 C517.2 184 515 183.5 515 183 "/>
  <path d="M547.3 201.4 C548.1 201.1 549 199.9 549.3 198.6 C550.2 195.5 550.1 164.7 549.2 163.3 C548.8 162.7 547.6 162 546.5 161.7 C545.4 161.4 548.1 161.1 552.6 161.1 C561.6 160.9 566.6 162.2 569.2 165.2 C571.1 167.4 571.5 172.4 570 176.4 C568.9 179.1 563.5 183 561 182.9 C559.6 182.8 559.6 182.7 561 182.2 C567.4 179.9 569.2 170.9 564.3 165.8 C562.2 163.6 560.6 163 557.8 163 L554 163 554 180.7 C554 190.5 554.3 199 554.7 199.6 C555.1 200.2 556.2 201 557.2 201.3 C558.2 201.7 556 202 552.5 202 C548.9 202 546.6 201.7 547.3 201.4 "/>
  <path d="M582.5 201.4 C583.7 200.9 584 197.8 584 181.8 C584 163.1 583.9 162.9 581.7 161.9 C580.1 161.2 582.2 161 589.2 161.2 C597.1 161.5 599.4 161.9 601.7 163.6 C605.1 166.1 606.5 169.7 605.5 173.5 C604.7 176.9 598.8 183 596.3 182.9 C594.8 182.9 595 182.7 596.9 181.7 C602.3 179 603.5 171.6 599.4 166.2 C597.1 163.2 596.3 162.9 592.8 163.1 L588.7 163.5 588.8 181.4 C588.9 191.3 589.3 199.7 589.7 200.1 C590.1 200.4 591.2 201 592.2 201.4 C593.2 201.7 591 202 587.5 202 C583.9 202 581.6 201.7 582.5 201.4 "/>
  <path d="M617.5 200.4 C618.7 199.1 619 195.4 619 180.8 C619 163.2 618.9 162.9 616.7 162 C615.1 161.3 616.3 161.1 621.5 161.1 C625.3 161.2 627.4 161.4 626.2 161.7 L623.9 162.1 624.2 180.8 L624.5 199.5 629.8 199.8 C633.5 200 635.9 199.6 637.7 198.4 C640.1 196.8 640.2 196.8 639.6 198.4 C639.2 199.3 639 200.5 639 201 C639 201.5 633.8 202 627.5 202 C617 202 616.1 201.8 617.5 200.4 "/>
  <path d="M648.4 201.4 C650.8 200.5 651 197.8 650.7 179.5 L650.5 162.5 648 161.8 C646.6 161.5 650.7 161.1 657.2 161 C663.7 161 668.9 161.3 668.9 161.7 C668.9 163.5 667.2 165.1 666.5 164.1 C666.1 163.4 663.4 163 660.4 163 L655 163 655 171 L655 179.1 661.5 178.8 C667.7 178.5 668 178.5 668 180.8 C668 182.7 667.6 183 666.2 182.4 C665.2 181.9 662.3 181.4 659.7 181.2 L655 180.8 655 189.2 C655 194.4 655.4 198 656.2 198.8 C657.7 200.3 665.4 200.3 668.2 198.8 C670 197.9 670.2 198 669.6 199.4 C669.2 200.3 669 201.3 669 201.5 C669 201.8 664 202 658 202 C651.9 202 647.6 201.7 648.4 201.4 "/>
  <path d="M63 200.4 C63 199.2 66.1 193.8 66.6 194.3 C67.1 194.8 64.3 201 63.5 201 C63.2 201 63 200.7 63 200.4 "/>
  <path d="M120.5 197.8 C116.9 196.1 113.7 193.8 113.4 192.8 C112.3 189.3 120 179.9 123.9 180 C128.1 180.1 137.4 185.2 137.8 187.6 C138.1 189.8 132.4 200 130.9 200 C130.4 200 129.3 200.2 128.5 200.5 C127.6 200.7 124 199.5 120.5 197.8 "/>
  <path d="M75.1 196 C72.9 194.9 70.9 193.4 70.6 192.6 C69.9 190.6 73.2 185.6 77.4 182.4 L81.1 179.6 86.5 181.3 C89.5 182.3 92 183.6 92 184.4 C92 185.5 88.8 190.3 87 192 C86.7 192.2 85.6 193.7 84.7 195.2 C82.6 198.5 80.3 198.6 75.1 196 "/>
  <path d="M152.9 193.7 C152.4 193.1 150 191.6 147.7 190.5 C141.6 187.5 141 186 144.2 180.3 C147.7 173.8 150.5 173.5 157.7 178.7 C160.5 180.7 163.1 183 163.4 183.8 C163.7 184.5 163 187.3 161.9 190 C160.2 194.4 159.6 195 157 195 C155.3 195 153.5 194.4 152.9 193.7 "/>
  <path d="M104.7 187.8 C103.5 187.2 101 186 99.2 185.3 C94.9 183.4 95.1 181.2 99.9 176.5 C103.8 172.7 103.9 172.7 109.7 173.3 C116.4 174 119 174.7 119 176.1 C119 178.1 112.5 186.8 110.3 187.9 C107.4 189.2 107.4 189.2 104.7 187.8 "/>
  <path d="M129 179 C125.6 177.3 123 175.4 123 174.5 C123 173.7 124.3 171.4 126.1 169.5 C129.6 165.5 132.1 165.1 139.2 167.5 C146.2 169.9 146.8 171.1 143.3 176.2 C141.8 178.5 140.1 180.8 139.7 181.2 C138.3 182.6 134.9 181.9 129 179 "/>
  <path d="M87.9 179.2 C86.8 178.8 85.7 178.1 85.6 177.6 C85.4 176.6 99.9 170.8 101.2 171.2 C102.4 171.6 94.2 178.9 92 179.5 C90.9 179.7 89 179.6 87.9 179.2 "/>
  <path d="M152.4 173.4 C150.9 172.5 150 171.6 150.2 171.3 C150.5 171.1 152.1 171.8 153.8 172.9 C157.5 175.3 156.2 175.7 152.4 173.4 "/>
  <path d="M74.2 169.6 C69.9 167.3 64.7 164.6 62.5 163.8 L58.5 162.3 64.2 161.5 C71.6 160.5 81 161.6 81 163.5 C81 164.3 81.6 166.5 82.5 168.4 C84.9 174.2 83 174.5 74.2 169.6 "/>
  <path d="M87 170.5 C87 169.7 88.2 168.1 89.7 167 C91.2 165.8 94.3 163.1 96.5 161 L100.5 157.2 108.4 158.5 C117.7 160.2 120 160.8 120 162 C120 163 118.3 163.5 110.7 164.9 C104.8 165.9 97.3 168.2 93.8 170 C90.3 171.8 87 172.1 87 170.5 "/>
  <path d="M111.7 171.4 C105.8 170.3 106.8 169.3 115.1 167.6 C126.5 165.3 126.8 165.4 123.6 169 C120.9 172.1 118.4 172.6 111.7 171.4 "/>
  <path d="M84.5 167.1 C83.3 164.9 83.3 155.3 84.5 148.7 C86.1 140.5 89.8 126.1 90.9 124.2 C91.9 122.3 114.1 144.8 117.4 151 C118.8 153.7 120 156.4 120 156.9 C120 158.1 114.5 157.5 105.8 155.3 L100.2 154 96.1 158 C89 164.8 85 168 84.5 167.1 "/>
  <path d="M121.9 156.3 C120.8 150.7 120.8 150.6 123.9 148 C126.6 145.7 138.2 139 139.5 139 C139.8 139 137.6 142.1 134.6 146 C131.7 149.8 128.3 155 127.1 157.5 C125.9 159.9 124.5 162 124 162 C123.4 162 122.5 159.4 121.9 156.3 "/>
  <path d="M57.5 156.9 C56.1 155.7 51.3 153.3 46.9 151.5 C33.4 146 34.9 145.5 52.2 149.9 C65.9 153.4 68 154.3 68 157 C68 159.8 60.9 159.7 57.5 156.9 "/>
  <path d="M71 157.6 C71 154.4 59.3 141.6 51 135.5 L48.5 133.7 53.8 134.3 C59 134.9 59.5 135.2 66.8 143 C71 147.5 75.5 152.9 76.7 155.1 L79 159 75 159 C72.3 159 71 158.5 71 157.6 "/>
  <path d="M79 153.2 C75.2 141.6 74.3 126.7 75.9 100.5 C76.9 85.4 78.5 72.4 78.8 76.5 C78.9 77.1 81.9 81.5 85.5 86.3 C89 91.1 92 95.4 92 95.8 C92 96.1 93.9 99 96.2 102.2 C98.5 105.3 101.6 109.8 103 112.1 C104.3 114.4 105.9 116.7 106.5 117.3 C108 119 114.6 133 115.7 137 C118.4 146 118.3 145.9 103.8 131.7 C96.1 124.1 89.7 118 89.6 118.1 C89.1 118.8 86.8 128.1 84.4 138.2 C83.1 144.1 81.5 150.5 81 152.5 L80 156 79 153.2 "/>
  <path d="M69.3 142.7 C67.3 140.4 61.8 133.3 57.1 127 C44.2 109.7 33.5 99.6 19.7 91.6 C17.1 90.1 15 88.6 15 88.3 C14.9 87.2 26.4 89.2 33.9 91.6 C42.2 94.3 48.9 97.8 59.1 104.6 C66.1 109.3 66.1 109.2 67.5 119 C68.4 124.8 72.7 141.7 74 144 C76.5 148.6 73.8 147.9 69.3 142.7 "/>
  <path d="M120 142.2 C120 139.6 120.4 135.9 121 133.9 C121.6 132 122.5 127.5 123 124 C124 117.5 125.3 115.3 130.2 111.8 L132.9 109.9 131.3 113.6 C128.4 120.6 126 131.4 126 137.6 C126 143 125.7 143.9 123.5 145.3 C122.1 146.2 120.7 147 120.5 147 C120.2 147 120 144.8 120 142.2 "/>
  <path d="M51.2 143.4 C48 142.1 44.6 140.5 43.5 140 C42.4 139.5 39 138.1 36 137 L30.5 134.9 36 135.4 C44.7 136.2 51.2 138.6 55.3 142.4 C59.6 146.6 58.9 146.8 51.2 143.4 "/>
  <path d="M128.5 138.9 C128.1 136.6 133.2 129.8 141.1 122.4 C148.7 115.3 150 114.7 145.7 120.5 C143.7 123.2 140.6 128.2 138.8 131.6 C137 135 134.5 138.3 133.3 138.9 C132 139.5 130.5 140.2 130 140.5 C129.4 140.7 128.8 140 128.5 138.9 "/>
  <path d="M115.8 128.2 C114.7 122.4 107.4 101.3 105.9 99.4 C104.5 97.7 114.3 77.1 120.2 69.5 C126.3 61.6 134.6 54 137.2 53.9 C137.5 53.9 135.7 57.9 133.4 62.7 C127 75.5 124.4 85.7 122.5 106 C119.9 133.3 118 139.6 115.8 128.2 "/>
  <path d="M51.7 131.2 C50.5 130.8 45.6 127.9 41 124.8 C36.3 121.7 30.4 118.3 28 117.2 C20.6 114.1 15.6 112.1 13.1 111.4 C11.8 111.1 11 110.5 11.3 110.3 C12.2 109.4 28 113.1 33.7 115.6 C47 121.4 51.9 124.2 54.4 127.4 C55.8 129.3 57 131.1 57 131.4 C57 132.2 54.4 132.1 51.7 131.2 "/>
  <path d="M71 124.2 C67.5 107.2 65.2 85.5 63.4 53 C61.5 16.6 61.2 19.1 66.2 28 C68.6 32.1 71.3 37 72.3 39 C73.3 40.9 75.8 45.6 78 49.5 C82.5 57.4 100.6 93.6 104.4 102 C107.1 108.1 109.9 115.9 109.9 117.4 C109.9 117.9 105 110.9 98.9 101.9 C86.3 83.1 76.7 69.8 76.2 70.4 C75.2 71.3 73 102.8 73 115.2 C73 122.8 72.7 129 72.5 129 C72.2 129 71.5 126.8 71 124.2 "/>
  <path d="M130.6 123.2 C132 117.3 134.2 113.8 139.7 108.4 C147.9 100.4 150.2 99.5 145.5 106.1 C143.3 109 141.1 111.9 140.5 112.5 C139.9 113 138.4 115.1 137.2 117.2 C135.9 119.3 133.8 122.1 132.5 123.5 L130 126 130.6 123.2 "/>
  <path d="M124.6 107.7 C125 103.9 126.2 100.8 129.1 96.6 C131.2 93.4 133 90.6 133 90.3 C133 88.1 149.2 71 151.4 71 C152.1 71 149.8 74.2 147.9 76 C146 77.6 139.6 88 134.2 98.2 C130.8 104.6 127.1 110.6 126 111.5 C124 112.9 124 112.8 124.6 107.7 "/>
  <path d="M62.5 104.1 C62.2 103.6 58.9 101.3 55.1 99 C48.2 94.9 48.2 94.8 44.4 85.7 C39.2 73.2 34.4 64.3 30.1 59.1 C22.9 50.4 22.8 50.2 29.5 53.8 C35.1 56.8 48 66.6 58.1 75.5 C62.5 79.4 62.7 79.6 63.3 87 C63.7 91.1 64.2 96.8 64.5 99.7 C64.8 102.9 64.6 105 64 105 C63.4 105 62.7 104.6 62.5 104.1 "/>
  <path d="M98 83.1 C95.2 77.1 93 71.3 93 70.2 C93 66.9 101.4 42.8 105.4 35 C109 27.6 112.1 23.2 110.5 27.5 C109.1 31.4 108.7 48.6 110 57.5 C112.7 77.7 112.9 75.6 108.2 85.2 C105.9 90 103.7 94 103.5 94 C103.2 94 100.7 89 98 83.1 "/>
 </g>
</svg>