<?xml version="1.0" encoding="UTF-8" standalone="no"?>
<svg
   xmlns:dc="http://purl.org/dc/elements/1.1/"
   xmlns:cc="http://creativecommons.org/ns#"
   xmlns:rdf="http://www.w3.org/1999/02/22-rdf-syntax-ns#"
   xmlns:svg="http://www.w3.org/2000/svg"
   xmlns="http://www.w3.org/2000/svg"
   xmlns:sodipodi="http://sodipodi.sourceforge.net/DTD/sodipodi-0.dtd"
   xmlns:inkscape="http://www.inkscape.org/namespaces/inkscape"
   version="1.1"
   id="svg2"
   xml:space="preserve"
   width="1000"
   height="480"
   viewBox="0 0 1000 480.00002"
   sodipodi:docname="logo-text.svg"
   inkscape:version="1.0.2 (e86c870879, 2021-01-15, custom)"><metadata
     id="metadata8"><rdf:RDF><cc:Work
         rdf:about=""><dc:format>image/svg+xml</dc:format><dc:type
           rdf:resource="http://purl.org/dc/dcmitype/StillImage" /><dc:title></dc:title></cc:Work></rdf:RDF></metadata><defs
     id="defs6"><clipPath
       clipPathUnits="userSpaceOnUse"
       id="clipPath18"><path
         d="M 0,1000 H 1000 V 0 H 0 Z"
         id="path16" /></clipPath><clipPath
       clipPathUnits="userSpaceOnUse"
       id="clipPath34"><path
         d="m 52.667,453.551 c 0,-56.167 38.409,-101.697 85.79,-101.697 v 0 c 47.381,0 85.792,45.53 85.792,101.697 v 0 c 0,56.167 -38.411,101.7 -85.792,101.7 v 0 c -47.381,0 -85.79,-45.533 -85.79,-101.7"
         id="path32" /></clipPath><clipPath
       clipPathUnits="userSpaceOnUse"
       id="clipPath1386"><path
         d="M 0,1000 H 1000 V 0 H 0 Z"
         id="path1384" /></clipPath><clipPath
       clipPathUnits="userSpaceOnUse"
       id="clipPath1506"><path
         d="M 52.6699,543.104 H 225.781 V 367.657 H 52.6699 Z"
         id="path1504" /></clipPath><clipPath
       clipPathUnits="userSpaceOnUse"
       id="clipPath1534"><path
         d="m 166.753,492.187 c -11.798,-0.729 -15.349,-4.488 -15.349,-4.488 v 0 c -4.007,-6.201 0,-18.48 0,-18.48 v 0 c 4.386,-16.496 10.336,-21.822 10.336,-21.822 v 0 c 1.033,-1.187 2.885,-2.118 5.268,-2.818 v 0 c 1.809,-0.532 3.922,-0.934 6.212,-1.209 v 0 c 1.71,-0.211 3.512,-0.349 5.361,-0.43 v 0 c 1.085,-0.046 2.188,-0.072 3.293,-0.076 v 0 c 9.01,-0.039 18.351,1.27 22.256,3.387 v 0 c 7.74,4.192 7.725,10.752 9.186,25.369 v 0 c 1.464,14.618 -4.907,17.227 -4.907,17.227 v 0 c -2.077,1.387 -5.44,2.312 -9.46,2.908 v 0 c -1.022,0.153 -2.084,0.283 -3.178,0.394 v 0 c -1.728,0.174 -3.532,0.305 -5.375,0.395 v 0 c -2.162,0.105 -4.376,0.158 -6.576,0.17 v 0 c -0.408,0.003 -0.815,0.004 -1.222,0.004 v 0 c -5.874,0 -11.574,-0.265 -15.845,-0.531"
         id="path1532" /></clipPath><radialGradient
       fx="0"
       fy="0"
       cx="0"
       cy="0"
       r="1"
       gradientUnits="userSpaceOnUse"
       gradientTransform="matrix(28.657898,0,0,-28.657898,181.5791,467.79102)"
       spreadMethod="pad"
       id="radialGradient1546"><stop
         style="stop-opacity:1;stop-color:#58595b"
         offset="0"
         id="stop1540" /><stop
         style="stop-opacity:1;stop-color:#231f20"
         offset="0.82738992"
         id="stop1542" /><stop
         style="stop-opacity:1;stop-color:#231f20"
         offset="1"
         id="stop1544" /></radialGradient><clipPath
       clipPathUnits="userSpaceOnUse"
       id="clipPath1556"><path
         d="M 0,1000 H 1000 V 0 H 0 Z"
         id="path1554" /></clipPath><clipPath
       clipPathUnits="userSpaceOnUse"
       id="clipPath1576"><path
         d="m 93.096,492.714 c -2.201,-0.012 -4.415,-0.065 -6.576,-0.17 v 0 c -1.844,-0.09 -3.648,-0.221 -5.375,-0.395 v 0 c -1.094,-0.111 -2.157,-0.241 -3.178,-0.394 v 0 c -4.018,-0.596 -7.383,-1.521 -9.461,-2.908 v 0 c 0,0 -6.368,-2.609 -4.908,-17.227 v 0 c 1.462,-14.617 1.445,-21.177 9.188,-25.369 v 0 c 3.905,-2.117 13.245,-3.426 22.256,-3.387 v 0 c 1.106,0.004 2.206,0.03 3.29,0.076 v 0 c 1.851,0.081 3.654,0.219 5.363,0.43 v 0 c 2.29,0.275 4.403,0.677 6.211,1.209 v 0 c 2.383,0.7 4.235,1.631 5.27,2.818 v 0 c 0,0 5.95,5.326 10.335,21.822 v 0 c 0,0 4.008,12.279 0,18.48 v 0 c 0,0 -3.55,3.759 -15.348,4.488 v 0 c -4.273,0.266 -9.972,0.531 -15.845,0.531 v 0 c -0.407,0 -0.814,-0.001 -1.222,-0.004"
         id="path1574" /></clipPath><radialGradient
       fx="0"
       fy="0"
       cx="0"
       cy="0"
       r="1"
       gradientUnits="userSpaceOnUse"
       gradientTransform="matrix(-28.658171,0,0,-28.658171,95.336914,467.79102)"
       spreadMethod="pad"
       id="radialGradient1588"><stop
         style="stop-opacity:1;stop-color:#58595b"
         offset="0"
         id="stop1582" /><stop
         style="stop-opacity:1;stop-color:#231f20"
         offset="0.82738992"
         id="stop1584" /><stop
         style="stop-opacity:1;stop-color:#231f20"
         offset="1"
         id="stop1586" /></radialGradient><clipPath
       clipPathUnits="userSpaceOnUse"
       id="clipPath1598"><path
         d="M 0,1000 H 1000 V 0 H 0 Z"
         id="path1596" /></clipPath><clipPath
       clipPathUnits="userSpaceOnUse"
       id="clipPath1734"><path
         d="M 23.2168,633.323 H 248 V 450.519 H 23.2168 Z"
         id="path1732" /></clipPath><clipPath
       clipPathUnits="userSpaceOnUse"
       id="clipPath1750"><path
         d="m 151.099,618.449 h 96.103 v -69.44 h -96.103 z"
         id="path1748" /></clipPath></defs><sodipodi:namedview
     pagecolor="#ffffff"
     bordercolor="#666666"
     borderopacity="1"
     objecttolerance="10"
     gridtolerance="10"
     guidetolerance="10"
     inkscape:pageopacity="0"
     inkscape:pageshadow="2"
     inkscape:window-width="1920"
     inkscape:window-height="1001"
     id="namedview4"
     showgrid="false"
     inkscape:zoom="1.2450001"
     inkscape:cx="451.9241"
     inkscape:cy="297.45562"
     inkscape:window-x="-9"
     inkscape:window-y="-9"
     inkscape:window-maximized="1"
     inkscape:current-layer="g10"
     inkscape:document-rotation="0" /><g
     id="g10"
     inkscape:groupmode="layer"
     inkscape:label="pineapple"
     transform="matrix(1.3333333,0,0,-1.3333333,0,1333.3333)"><g
       id="g958"
       transform="translate(-250.46914,87.749392)"
       style="fill:#f9f9f9"><g
         id="g1760"
         transform="translate(916.14638,666.26257)"
         style="fill:#f9f9f9"><path
           d="m 0,0 c -2.393,0 -4.613,0.846 -6.762,2.637 -2.679,2.221 -3.081,3.509 -3.081,4.068 0,1.218 0.473,1.662 0.774,1.85 3.84,1.92 5.788,4.24 5.788,6.918 0,3.126 -1.233,5.173 -3.525,6.006 0.559,0.357 1.132,0.715 1.691,1.074 l 4.098,2.549 C 6.262,29.574 18.167,37.423 34.472,48.499 32.467,37.969 28.412,27.251 22.38,16.634 16.104,5.589 8.567,0 0,0 m -78.831,0 c -2.393,0 -4.613,0.846 -6.763,2.637 -2.679,2.221 -3.081,3.509 -3.081,4.068 0,1.218 0.473,1.662 0.774,1.85 3.84,1.92 5.789,4.24 5.789,6.918 0,3.01 -1.147,5.046 -3.295,5.904 0.587,0.4 1.189,0.804 1.776,1.203 l 4.27,2.793 c 7.294,4.542 19.041,12.279 35.003,23.126 C -46.351,37.969 -50.42,27.251 -56.451,16.634 -62.727,5.589 -70.249,0 -78.831,0 m -38.483,51.278 c 10.214,6.364 16.991,9.542 20.345,9.542 3.323,0 4.999,-0.831 4.999,-2.507 0,-3.739 -5.072,-8.711 -15.173,-14.842 -10.129,-6.162 -22.164,-10.388 -36.133,-12.68 7.077,7.293 15.746,14.126 25.962,20.487 M 77.097,33.284 75.206,31.967 C 66.31,25.763 57.826,20.417 50.032,16.105 L 45.605,13.883 C 37.954,9.728 34.1,7.923 32.18,7.137 c 5.702,6.833 9.857,14.484 12.35,22.778 2.708,9.128 4.37,17.023 4.901,23.428 0.659,8.152 1.791,10.086 2.25,10.545 1.517,1.518 2.292,3.108 2.292,4.757 0,2.033 -1.218,3.294 -3.153,3.294 -1.132,0 -2.779,-0.429 -4.154,-2.507 L 46.521,69.131 C 45.49,66.295 36.191,57.771 -1.52,33.284 l -5.874,-3.912 c -7.507,-5.101 -14.712,-9.57 -21.405,-13.267 l -4.412,-2.222 c -7.666,-4.155 -11.506,-5.96 -13.454,-6.746 5.73,6.833 9.872,14.484 12.364,22.778 2.723,9.128 4.369,17.023 4.9,23.428 0.659,8.152 1.791,10.086 2.25,10.545 1.518,1.518 2.292,3.108 2.292,4.757 0,2.033 -1.203,3.294 -3.137,3.294 -1.146,0 -2.78,-0.429 -4.155,-2.507 l -0.158,-0.301 c -1.016,-2.836 -10.316,-11.36 -48.054,-35.877 l -6.105,-4.125 c -21.476,-14.988 -39.73,-22.567 -54.302,-22.567 -9.943,0 -11.089,4.369 -11.089,7.652 0,3.081 1.977,6.948 5.874,11.504 18.641,3.352 33.943,8.61 45.506,15.59 12.163,7.32 18.066,13.596 18.066,19.199 0,2.793 -1.606,6.116 -9.24,6.116 -16.706,0 -33.156,-5.771 -48.859,-17.164 -9.169,-6.649 -15.703,-13.211 -19.599,-19.7 l -0.044,-0.029 c -7.708,-5.257 -15.087,-9.844 -21.979,-13.669 C -200.201,5.818 -213.739,0.63 -222.423,0.63 c -2.636,0 -2.636,0.804 -2.636,1.075 0,1.662 1.562,4.83 8.969,10.432 6.376,4.8 12.866,9.97 19.299,15.372 6.862,5.762 10.201,11.034 10.201,16.118 0,2.608 -0.845,4.931 -2.535,6.864 -1.733,1.99 -4.099,2.995 -7.021,2.995 l -14.786,-1.878 c -0.989,0 -0.989,0.244 -0.989,0.431 0.015,0.056 0.23,1.304 5.33,4.785 4.456,3.065 6.548,5.589 6.548,7.908 0,1.85 -1.103,4.084 -6.42,4.084 -3.71,0 -7.993,-2.064 -13.108,-6.26 -4.829,-3.999 -7.494,-8.096 -7.967,-12.207 l -24.128,-16.765 -6.231,-4.399 c -7.438,-5.029 -14.558,-9.428 -21.206,-13.124 C -297.17,5.818 -310.71,0.63 -319.393,0.63 c -2.636,0 -2.636,0.804 -2.636,1.075 0,1.362 1.375,4.67 10.531,11.521 7.379,5.515 14.872,11.476 22.279,17.721 7.809,6.621 11.607,12.294 11.607,17.367 0,2.636 -0.861,4.928 -2.537,6.862 -1.747,1.993 -4.113,3.009 -7.02,3.009 -12.164,0 -28.283,-6.177 -48.07,-18.397 l 24.314,23.584 c 5,4.957 -14.485,5.372 -25.718,-1.877 -12.537,-8.683 -27.222,-18.842 -44.044,-30.419 l -0.358,-0.243 c -24.987,-16.104 -42.639,-24.271 -52.511,-24.271 -10.172,0 -10.172,4.341 -10.172,5.774 0,6.392 6.246,14.487 18.554,24.071 12.122,9.428 23.584,14.328 34.07,14.543 0.301,-0.845 0.861,-1.692 1.75,-2.552 0.988,-1.015 2.478,-1.502 4.441,-1.502 1.934,0 3.639,0.702 5.058,2.118 1.418,1.433 2.133,2.98 2.133,4.615 0,1.934 -0.902,5.171 -7.049,5.171 -12.966,0 -25.904,-3.237 -38.527,-9.626 0.373,1.259 0.531,2.42 0.531,3.522 0,3.784 -2.22,8.298 -12.837,8.298 -5.833,0 -17.467,-5.404 -35.333,-16.449 l 3.381,-5.745 c 2.938,1.777 7.523,4.597 13.785,8.454 6.002,3.711 11.002,5.571 14.885,5.571 2.135,0 2.951,-0.831 2.951,-2.949 0,-4.257 -4.254,-12.567 -24.6,-28.127 -16.478,-12.564 -30.116,-18.941 -40.591,-18.941 -0.243,0 -1.088,0.187 -2.335,2.652 -0.902,1.819 -2.363,4.239 -4.556,4.239 -6.404,0 -7.349,-4.04 -7.349,-6.432 0,-3.368 1.762,-7.364 10.158,-7.364 14.757,0 31.091,5.916 48.629,17.608 0.041,-10.102 5.83,-15.416 16.748,-15.416 7.664,0 17.336,2.508 28.727,7.463 11.248,4.886 22.636,11.364 33.871,19.258 l 0.472,0.314 c 10.015,6.305 19.715,12.766 28.77,19.185 l 9.972,6.778 c -160.469,-149.38 -160.469,-152.489 -160.469,-154.182 0,-2.406 2.335,-3.61 6.891,-3.61 4.082,0 6.963,0.89 8.84,2.751 1.518,1.519 9.901,9.716 26.405,25.776 l 76.311,73.186 c 21.29,19.658 36.793,32.438 46.076,37.996 19.286,11.907 33.771,17.955 43.042,17.955 2.808,0 3.653,-0.459 3.867,-0.616 -0.3,-0.56 -1.904,-2.639 -10.773,-8.684 -7.623,-5.244 -15.359,-11.375 -22.983,-18.268 -7.879,-7.122 -11.891,-13.798 -11.891,-19.815 0,-4.514 1.877,-9.872 10.817,-9.872 6.418,0 14.601,2.079 24.329,6.204 9.615,4.082 17.049,7.751 22.021,10.86 6.906,3.784 13.383,7.55 19.301,11.219 l 5.873,3.755 c 9.499,6.003 18.67,12.106 27.323,18.209 2.607,-0.528 5.53,-0.816 8.797,-0.816 h 0.087 l 17.393,1.561 c 0.272,0 0.473,-0.014 0.63,-0.028 -0.414,-1.002 -2.178,-3.182 -9.026,-7.178 -6.62,-3.898 -13.368,-8.798 -20.059,-14.558 -6.963,-5.974 -10.503,-12.508 -10.503,-19.356 0,-4.514 1.878,-9.872 10.804,-9.872 6.405,0 14.601,2.079 24.329,6.204 9.627,4.082 17.065,7.751 22.022,10.86 5.043,2.737 9.843,5.501 14.355,8.225 l 0.044,0.027 c -0.158,-1.06 -0.244,-2.19 -0.244,-3.251 0,-7.78 3.511,-17.05 20.202,-17.05 13.411,0 28.985,5.028 46.479,15.015 -0.445,-1.561 -0.672,-3.282 -0.672,-5.157 0,-3.954 1.791,-7.566 5.315,-10.76 3.481,-3.153 8.925,-4.743 16.132,-4.743 14.27,0 33.827,7.136 58.241,21.22 -0.572,-1.693 -0.858,-3.612 -0.858,-5.717 0,-3.954 1.791,-7.566 5.315,-10.76 3.482,-3.153 8.927,-4.743 16.133,-4.743 17.493,0 42.911,10.718 75.52,31.82 l 0.76,0.491 z"
           style="fill:#f9f9f9;fill-opacity:1;fill-rule:nonzero;stroke:none"
           id="path1762" /></g><g
         id="g1764"
         transform="translate(504.17478,804.40997)"
         style="fill:#f9f9f9"><path
           d="m 0,0 c -0.594,0 -5.064,0.226 -8.416,0.226 -0.818,0 -1.188,-0.152 -1.188,-0.597 0,-0.298 0.297,-0.446 0.595,-0.446 0.669,0 1.936,-0.078 2.531,-0.224 2.457,-0.523 3.054,-1.713 3.201,-4.245 0.15,-2.383 0.15,-4.464 0.15,-16.08 v -13.105 c 0,-7.148 0,-13.026 -0.373,-16.155 -0.298,-2.162 -0.67,-3.799 -2.16,-4.094 -0.67,-0.151 -1.565,-0.298 -2.233,-0.298 -0.447,0 -0.595,-0.225 -0.595,-0.446 0,-0.447 0.374,-0.598 1.193,-0.598 2.231,0 6.922,0.223 7.145,0.223 0.375,0 5.065,-0.223 9.16,-0.223 0.819,0 1.186,0.223 1.186,0.598 0,0.221 -0.145,0.446 -0.592,0.446 -0.672,0 -2.309,0.147 -3.352,0.298 -2.232,0.295 -2.678,1.932 -2.901,4.094 -0.372,3.129 -0.372,9.007 -0.372,16.155 v 30.598 c 0,0.749 0.146,1.269 0.595,1.417 0.668,0.296 1.937,0.445 3.2,0.445 1.713,0 6.25,0.298 10.198,-3.722 3.95,-4.017 4.172,-9.01 4.172,-11.466 0,-6.849 -5.657,-12.134 -12.879,-12.134 -1.565,0 -2.013,-0.074 -2.013,-0.672 0,-0.369 0.448,-0.519 0.82,-0.519 0.374,-0.075 1.193,-0.075 1.561,-0.075 10.572,0 18.316,7.145 18.316,17.717 0,3.951 -2.083,7.301 -3.721,8.862 C 22.035,-2.903 18.685,0.226 9.38,0.226 5.954,0.226 1.637,0 0,0"
           style="fill:#f9f9f9;fill-opacity:1;fill-rule:nonzero;stroke:none"
           id="path1766" /></g><g
         id="g1768"
         transform="translate(542.74118,803.59257)"
         style="fill:#f9f9f9"><path
           d="m 0,0 c 0.52,0 1.49,-0.077 2.309,-0.299 1.637,-0.374 2.379,-1.638 2.531,-4.17 0.147,-2.385 0.147,-4.467 0.147,-16.08 v -13.104 c 0,-7.149 0,-13.027 -0.368,-16.156 -0.298,-2.162 -0.673,-3.798 -2.16,-4.093 -0.671,-0.152 -1.564,-0.298 -2.232,-0.298 -0.45,0 -0.596,-0.226 -0.596,-0.449 0,-0.445 0.369,-0.595 1.186,-0.595 2.238,0 6.923,0.223 7.298,0.223 0.371,0 5.064,-0.223 9.156,-0.223 0.819,0 1.192,0.223 1.192,0.595 0,0.223 -0.146,0.449 -0.594,0.449 -0.673,0 -2.309,0.146 -3.35,0.298 -2.234,0.295 -2.682,1.931 -2.904,4.093 -0.373,3.129 -0.373,9.007 -0.373,16.156 v 13.104 c 0,11.613 0,13.695 0.148,16.08 0.152,2.609 0.748,3.871 2.757,4.242 0.892,0.15 1.342,0.227 1.86,0.227 0.301,0 0.594,0.148 0.594,0.446 0,0.446 -0.369,0.594 -1.189,0.594 C 13.179,1.04 8.486,0.817 8.115,0.817 7.74,0.817 3.055,1.04 0.595,1.04 -0.223,1.04 -0.598,0.892 -0.598,0.446 -0.598,0.148 -0.297,0 0,0"
           style="fill:#f9f9f9;fill-opacity:1;fill-rule:nonzero;stroke:none"
           id="path1770" /></g><g
         id="g1772"
         transform="translate(573.33488,748.34847)"
         style="fill:#f9f9f9"><path
           d="M 0,0 C 3.351,0 6.475,0.223 7.148,0.223 7.817,0.223 10.793,0 15.038,0 c 0.896,0 1.341,0.152 1.341,0.595 0,0.3 -0.223,0.446 -0.598,0.446 -0.666,0 -2.308,0.076 -3.718,0.451 C 10.052,2.085 9.309,4.02 9.156,10.125 L 8.189,45.787 c 2.383,-2.68 10.793,-12.059 19.433,-21.369 7.889,-8.486 18.612,-19.43 19.431,-20.173 3.944,-3.947 4.837,-4.763 5.435,-4.763 0.519,0 0.669,0.368 0.669,5.287 l 0.151,43.624 c 0,4.467 0.295,6.107 2.751,6.625 0.894,0.226 1.418,0.226 1.786,0.226 0.523,0 0.821,0.222 0.821,0.52 0,0.447 -0.52,0.52 -1.339,0.52 -3.055,0 -5.512,-0.222 -6.33,-0.222 -0.818,0 -4.391,0.222 -7.741,0.222 -0.893,0 -1.49,-0.073 -1.49,-0.52 0,-0.298 0.075,-0.52 0.597,-0.52 0.597,0 2.304,-0.077 3.648,-0.372 2.308,-0.596 2.826,-2.237 2.901,-7.073 l 0.82,-37.82 C 47.353,12.435 39.232,21.516 31.862,29.41 20.401,41.694 9.309,53.676 8.189,54.942 7.443,55.69 6.18,57.328 5.584,57.328 4.988,57.328 4.766,56.507 4.766,53.605 L 4.688,10.947 C 4.688,4.17 4.32,2.012 2.455,1.492 1.339,1.117 0,1.041 -0.594,1.041 -0.972,1.041 -1.193,0.895 -1.193,0.595 -1.193,0.077 -0.743,0 0,0"
           style="fill:#f9f9f9;fill-opacity:1;fill-rule:nonzero;stroke:none"
           id="path1774" /></g><g
         id="g1776"
         transform="translate(645.09468,803.59257)"
         style="fill:#f9f9f9"><path
           d="m 0,0 c 0.672,0 1.936,-0.077 2.532,-0.227 2.456,-0.52 3.052,-1.71 3.197,-4.242 0.153,-2.385 0.153,-4.467 0.153,-16.08 v -13.104 c 0,-7.149 0,-13.027 -0.375,-16.156 C 5.212,-51.971 4.841,-53.607 3.35,-53.902 2.681,-54.054 1.79,-54.2 1.116,-54.2 c -0.444,0 -0.595,-0.226 -0.595,-0.449 0,-0.445 0.374,-0.595 1.192,-0.595 1.116,0 2.827,0.077 4.319,0.15 1.563,0 2.827,0.073 2.979,0.073 2.157,0 7.144,-0.446 18.386,-0.446 2.904,0 3.499,0 4.02,1.936 0.375,1.56 0.969,6.625 0.969,7.22 0,0.521 0,1.119 -0.449,1.119 -0.37,0 -0.52,-0.301 -0.666,-1.119 -0.522,-3.05 -1.417,-4.539 -3.35,-5.36 -1.941,-0.817 -5.211,-0.817 -7.151,-0.817 -7.297,0 -8.41,0.966 -8.635,6.105 -0.075,1.561 0,10.198 0,12.73 v 6.549 c 0,0.299 0.15,0.524 0.525,0.524 1.262,0 8.633,-0.147 10.642,-0.373 2.905,-0.296 3.578,-1.563 3.873,-2.604 0.296,-0.968 0.296,-1.716 0.296,-2.458 0,-0.372 0.152,-0.671 0.521,-0.671 0.52,0 0.52,0.819 0.52,1.413 0,0.523 0.152,3.279 0.3,4.768 0.222,2.457 0.594,3.722 0.594,4.169 0,0.445 -0.146,0.594 -0.372,0.594 -0.295,0 -0.593,-0.371 -1.113,-0.969 -0.672,-0.744 -1.714,-0.889 -3.502,-1.041 -1.709,-0.147 -10.868,-0.147 -11.836,-0.147 -0.374,0 -0.448,0.221 -0.448,0.745 v 20.545 c 0,0.523 0.15,0.749 0.448,0.749 0.818,0 8.933,-0.077 10.201,-0.226 4.015,-0.448 4.763,-1.339 5.283,-2.531 0.374,-0.895 0.445,-2.162 0.445,-2.68 0,-0.598 0.152,-0.97 0.595,-0.97 0.299,0 0.451,0.449 0.525,0.82 0.148,0.894 0.296,4.169 0.371,4.913 0.227,2.087 0.596,2.98 0.596,3.501 0,0.371 -0.073,0.669 -0.298,0.669 -0.373,0 -0.669,-0.298 -1.041,-0.371 C 28.664,1.112 27.471,0.967 26.056,0.892 24.348,0.817 9.531,0.817 9.011,0.817 8.637,0.817 3.944,1.04 0.596,1.04 -0.223,1.04 -0.595,0.892 -0.595,0.446 -0.595,0.148 -0.298,0 0,0"
           style="fill:#f9f9f9;fill-opacity:1;fill-rule:nonzero;stroke:none"
           id="path1778" /></g><g
         id="g1780"
         transform="translate(714.84268,772.98907)"
         style="fill:#f9f9f9"><path
           d="m 0,0 h -14.213 c -0.229,0 -0.372,0.158 -0.229,0.531 l 6.547,20.102 c 0.387,1.117 0.746,1.117 1.133,0 L 0.301,0.531 C 0.372,0.23 0.372,0 0,0 m 22.266,-23.597 c -0.746,0 -1.863,0.072 -2.981,0.444 -1.561,0.444 -3.726,1.648 -6.404,8.267 -4.542,11.319 -16.219,42.066 -17.337,44.89 -0.902,2.306 -1.204,2.678 -1.648,2.678 -0.444,0 -0.745,-0.444 -1.633,-2.894 L -24.63,-16.448 c -1.346,-3.725 -2.836,-6.562 -6.262,-7.006 -0.601,-0.071 -1.632,-0.143 -2.163,-0.143 -0.372,0 -0.658,-0.158 -0.658,-0.445 0,-0.443 0.429,-0.602 1.404,-0.602 3.496,0 7.594,0.23 8.411,0.23 0.83,0 4.025,-0.23 5.816,-0.23 0.674,0 1.118,0.159 1.118,0.602 0,0.287 -0.229,0.445 -0.745,0.445 h -0.745 c -1.275,0 -2.837,0.673 -2.837,2.15 0,1.345 0.372,3.136 1.046,4.999 l 4.471,13.167 c 0.142,0.388 0.372,0.601 0.744,0.601 H 0.974 c 0.372,0 0.516,-0.142 0.672,-0.443 l 6.921,-18.324 c 0.445,-1.176 0,-1.849 -0.458,-2.007 -0.286,-0.071 -0.515,-0.214 -0.515,-0.517 0,-0.443 0.831,-0.443 2.234,-0.514 5.145,-0.159 10.575,-0.159 11.692,-0.159 0.817,0 1.49,0.159 1.49,0.602 0,0.374 -0.301,0.445 -0.744,0.445"
           style="fill:#f9f9f9;fill-opacity:1;fill-rule:nonzero;stroke:none"
           id="path1782" /></g><g
         id="g1784"
         transform="translate(742.60928,803.59257)"
         style="fill:#f9f9f9"><path
           d="m 0,0 c 0.672,0 1.938,-0.077 2.534,-0.227 2.454,-0.52 3.053,-1.71 3.198,-4.242 0.151,-2.385 0.151,-4.467 0.151,-16.08 v -13.104 c 0,-7.149 0,-13.027 -0.372,-16.156 C 5.214,-51.971 4.842,-53.607 3.35,-53.902 2.681,-54.054 1.786,-54.2 1.12,-54.2 c -0.448,0 -0.597,-0.226 -0.597,-0.449 0,-0.445 0.369,-0.595 1.19,-0.595 2.231,0 6.921,0.223 7.148,0.223 0.372,0 5.064,-0.223 9.158,-0.223 0.819,0 1.189,0.223 1.189,0.595 0,0.223 -0.149,0.449 -0.593,0.449 -0.672,0 -2.31,0.146 -3.351,0.298 -2.233,0.295 -2.681,1.931 -2.904,4.093 -0.376,3.129 -0.376,9.007 -0.376,16.156 v 30.597 c 0,0.746 0.152,1.267 0.599,1.417 0.67,0.296 1.933,0.446 3.201,0.446 1.712,0 6.252,0.297 10.199,-3.725 3.948,-4.018 4.17,-9.008 4.17,-11.464 0,-6.848 -5.656,-12.134 -12.877,-12.134 -1.567,0 -2.012,-0.074 -2.012,-0.671 0,-0.37 0.445,-0.52 0.816,-0.52 0.375,-0.078 1.196,-0.078 1.565,-0.078 10.572,0 18.316,7.148 18.316,17.721 0,3.951 -2.083,7.3 -3.722,8.862 C 31.047,-2.086 27.696,1.04 18.39,1.04 14.966,1.04 10.648,0.817 9.011,0.817 8.411,0.817 3.944,1.04 0.597,1.04 -0.222,1.04 -0.595,0.892 -0.595,0.446 -0.595,0.148 -0.296,0 0,0"
           style="fill:#f9f9f9;fill-opacity:1;fill-rule:nonzero;stroke:none"
           id="path1786" /></g><g
         id="g1788"
         transform="translate(790.40038,803.59257)"
         style="fill:#f9f9f9"><path
           d="m 0,0 c 0.669,0 1.933,-0.077 2.532,-0.227 2.456,-0.52 3.049,-1.71 3.201,-4.242 0.149,-2.385 0.149,-4.467 0.149,-16.08 v -13.104 c 0,-7.149 0,-13.027 -0.37,-16.156 -0.301,-2.162 -0.671,-3.798 -2.161,-4.093 -0.673,-0.152 -1.564,-0.298 -2.238,-0.298 -0.444,0 -0.59,-0.226 -0.59,-0.449 0,-0.445 0.369,-0.595 1.191,-0.595 2.23,0 6.921,0.223 7.142,0.223 0.377,0 5.07,-0.223 9.16,-0.223 0.821,0 1.192,0.223 1.192,0.595 0,0.223 -0.148,0.449 -0.596,0.449 -0.671,0 -2.306,0.146 -3.348,0.298 -2.234,0.295 -2.68,1.931 -2.905,4.093 -0.375,3.129 -0.375,9.007 -0.375,16.156 v 30.597 c 0,0.746 0.153,1.267 0.6,1.417 0.669,0.296 1.933,0.446 3.2,0.446 1.711,0 6.252,0.297 10.198,-3.725 3.948,-4.018 4.17,-9.008 4.17,-11.464 0,-6.848 -5.658,-12.134 -12.877,-12.134 -1.566,0 -2.011,-0.074 -2.011,-0.671 0,-0.37 0.445,-0.52 0.817,-0.52 0.37,-0.078 1.194,-0.078 1.563,-0.078 10.572,0 18.315,7.148 18.315,17.721 0,3.951 -2.082,7.3 -3.725,8.862 C 31.047,-2.086 27.695,1.04 18.39,1.04 14.966,1.04 10.645,0.817 9.008,0.817 8.412,0.817 3.944,1.04 0.596,1.04 -0.226,1.04 -0.596,0.892 -0.596,0.446 -0.596,0.148 -0.295,0 0,0"
           style="fill:#f9f9f9;fill-opacity:1;fill-rule:nonzero;stroke:none"
           id="path1790" /></g><g
         id="g1792"
         transform="translate(838.18838,803.59257)"
         style="fill:#f9f9f9"><path
           d="m 0,0 c 0.673,0 1.939,-0.077 2.538,-0.227 2.45,-0.52 3.049,-1.71 3.198,-4.242 0.147,-2.385 0.147,-4.467 0.147,-16.08 v -13.104 c 0,-7.149 0,-13.027 -0.372,-16.156 C 5.21,-51.971 4.842,-53.607 3.351,-53.902 2.684,-54.054 1.789,-54.2 1.12,-54.2 c -0.447,0 -0.597,-0.226 -0.597,-0.449 0,-0.445 0.373,-0.595 1.191,-0.595 1.119,0 2.756,0.077 4.245,0.15 1.49,0 2.756,0.073 3.052,0.073 4.316,0 9.233,-0.446 19.953,-0.446 3.944,0 4.17,0.3 4.687,2.011 0.597,2.159 1.119,6.624 1.119,7.445 0,0.819 -0.072,1.116 -0.446,1.116 -0.444,0 -0.596,-0.373 -0.673,-0.97 -0.222,-1.412 -0.966,-3.275 -1.934,-4.463 -1.787,-2.16 -5.062,-2.238 -9.006,-2.238 -5.807,0 -7.741,0.523 -8.935,1.716 -1.341,1.342 -1.637,6.106 -1.637,17.048 v 13.253 c 0,11.613 0,13.695 0.147,16.08 0.149,2.609 0.744,3.871 2.906,4.242 0.888,0.15 1.935,0.227 2.453,0.227 0.3,0 0.599,0.148 0.599,0.446 0,0.446 -0.374,0.594 -1.192,0.594 C 14.817,1.04 9.386,0.817 9.011,0.817 8.64,0.817 3.947,1.04 0.598,1.04 -0.222,1.04 -0.591,0.892 -0.591,0.446 -0.591,0.148 -0.296,0 0,0"
           style="fill:#f9f9f9;fill-opacity:1;fill-rule:nonzero;stroke:none"
           id="path1794" /></g><g
         id="g1796"
         transform="translate(882.26068,803.59257)"
         style="fill:#f9f9f9"><path
           d="m 0,0 c 0.672,0 1.936,-0.077 2.531,-0.227 2.456,-0.52 3.054,-1.71 3.199,-4.242 0.153,-2.385 0.153,-4.467 0.153,-16.08 v -13.104 c 0,-7.149 0,-13.027 -0.374,-16.156 C 5.21,-51.971 4.842,-53.607 3.35,-53.902 2.679,-54.054 1.787,-54.2 1.114,-54.2 c -0.442,0 -0.594,-0.226 -0.594,-0.449 0,-0.445 0.372,-0.595 1.193,-0.595 1.114,0 2.828,0.077 4.316,0.15 1.561,0 2.829,0.073 2.975,0.073 2.162,0 7.15,-0.446 18.392,-0.446 2.905,0 3.496,0 4.019,1.936 0.371,1.56 0.968,6.625 0.968,7.22 0,0.521 0,1.119 -0.445,1.119 -0.374,0 -0.523,-0.301 -0.67,-1.119 -0.522,-3.05 -1.417,-4.539 -3.35,-5.36 -1.939,-0.817 -5.213,-0.817 -7.148,-0.817 -7.298,0 -8.415,0.966 -8.636,6.105 -0.073,1.561 0,10.198 0,12.73 v 6.549 c 0,0.299 0.145,0.524 0.522,0.524 1.266,0 8.634,-0.147 10.645,-0.373 2.903,-0.296 3.574,-1.563 3.872,-2.604 0.298,-0.968 0.298,-1.716 0.298,-2.458 0,-0.372 0.146,-0.671 0.52,-0.671 0.521,0 0.521,0.819 0.521,1.413 0,0.523 0.152,3.279 0.298,4.768 0.222,2.457 0.597,3.722 0.597,4.169 0,0.445 -0.147,0.594 -0.375,0.594 -0.295,0 -0.591,-0.371 -1.114,-0.969 -0.671,-0.744 -1.714,-0.889 -3.499,-1.041 -1.714,-0.147 -10.87,-0.147 -11.836,-0.147 -0.376,0 -0.449,0.221 -0.449,0.745 v 20.545 c 0,0.523 0.145,0.749 0.449,0.749 0.819,0 8.93,-0.077 10.199,-0.226 4.02,-0.448 4.76,-1.339 5.282,-2.531 0.377,-0.895 0.448,-2.162 0.448,-2.68 0,-0.598 0.152,-0.97 0.595,-0.97 0.3,0 0.449,0.449 0.521,0.82 0.153,0.894 0.298,4.169 0.375,4.913 0.222,2.087 0.594,2.98 0.594,3.501 0,0.371 -0.074,0.669 -0.296,0.669 -0.375,0 -0.673,-0.298 -1.041,-0.371 C 28.664,1.112 27.471,0.967 26.056,0.892 24.347,0.817 9.527,0.817 9.004,0.817 8.634,0.817 3.947,1.04 0.597,1.04 -0.228,1.04 -0.596,0.892 -0.596,0.446 -0.596,0.148 -0.298,0 0,0"
           style="fill:#f9f9f9;fill-opacity:1;fill-rule:nonzero;stroke:none"
           id="path1798" /></g><g
         id="g1800"
         transform="translate(573.51358,626.05847)"
         style="fill:#f9f9f9"><path
           d="m 0,0 h -7.694 c -0.157,0 -0.201,0.129 -0.157,0.288 l 3.839,10.274 c 0.044,0.17 0.129,0.385 0.258,0.385 0.114,0 0.158,-0.215 0.201,-0.385 L 0.201,0.244 C 0.243,0.129 0.201,0 0,0 m 14.113,-12.234 c -0.502,0 -1.132,0.042 -1.749,0.171 -0.887,0.201 -2.092,0.789 -3.68,4.542 -2.666,6.346 -9.357,23.397 -10.36,25.688 -0.416,0.96 -0.674,1.332 -1.046,1.332 -0.415,0 -0.658,-0.456 -1.161,-1.659 L -14.369,-8.395 c -0.831,-2.093 -1.635,-3.512 -3.555,-3.755 -0.33,-0.042 -0.916,-0.084 -1.29,-0.084 -0.328,0 -0.501,-0.087 -0.501,-0.33 0,-0.344 0.244,-0.431 0.788,-0.431 2.179,0 4.471,0.129 4.93,0.129 1.304,0 3.095,-0.129 4.427,-0.129 0.459,0 0.716,0.087 0.716,0.431 0,0.243 -0.128,0.33 -0.631,0.33 h -0.629 c -1.29,0 -1.663,0.543 -1.663,1.287 0,0.504 0.2,1.506 0.616,2.552 l 2.264,5.975 c 0.086,0.243 0.171,0.33 0.372,0.33 h 9.313 c 0.215,0 0.33,-0.087 0.431,-0.288 l 3.339,-8.854 c 0.199,-0.501 -0.087,-0.873 -0.388,-0.96 -0.416,-0.042 -0.588,-0.129 -0.588,-0.372 0,-0.302 0.517,-0.302 1.261,-0.344 3.338,-0.087 6.389,-0.087 7.895,-0.087 1.548,0 1.92,0.087 1.92,0.431 0,0.285 -0.216,0.33 -0.545,0.33"
           style="fill:#f9f9f9;fill-opacity:1;fill-rule:nonzero;stroke:none"
           id="path1802" /></g><g
         id="g1804"
         transform="translate(590.55268,632.53107)"
         style="fill:#f9f9f9"><path
           d="m 0,0 c 0,6.35 0,7.517 -0.084,8.849 -0.084,1.424 -0.419,2.09 -1.796,2.386 -0.332,0.082 -1.044,0.126 -1.631,0.126 -0.457,0 -0.709,0.084 -0.709,0.372 0,0.294 0.295,0.378 0.921,0.378 2.212,0 4.844,-0.126 6.096,-0.126 1.004,0 3.634,0.126 5.136,0.126 0.629,0 0.919,-0.084 0.919,-0.378 0,-0.288 -0.247,-0.372 -0.666,-0.372 -0.459,0 -0.711,-0.044 -1.21,-0.126 C 5.845,11.026 5.512,10.315 5.428,8.849 5.347,7.517 5.347,6.35 5.347,0 v -5.849 c 0,-6.052 1.209,-8.601 3.258,-10.269 1.875,-1.548 3.8,-1.716 5.218,-1.716 1.838,0 4.091,0.588 5.766,2.259 2.293,2.295 2.421,6.055 2.421,10.356 V 0 c 0,6.35 0,7.517 -0.087,8.849 -0.078,1.424 -0.414,2.09 -1.792,2.386 -0.336,0.082 -1.046,0.126 -1.508,0.126 -0.454,0 -0.709,0.084 -0.709,0.372 0,0.294 0.295,0.378 0.88,0.378 2.129,0 4.759,-0.126 4.801,-0.126 0.505,0 3.134,0.126 4.759,0.126 0.587,0 0.879,-0.084 0.879,-0.378 0,-0.288 -0.252,-0.372 -0.75,-0.372 -0.459,0 -0.713,-0.044 -1.214,-0.126 C 26.143,11.026 25.807,10.315 25.726,8.849 25.642,7.517 25.642,6.35 25.642,0 v -4.469 c 0,-4.634 -0.46,-9.561 -3.965,-12.57 -2.97,-2.547 -5.975,-3.008 -8.69,-3.008 -2.215,0 -6.22,0.128 -9.272,2.882 C 1.586,-15.242 0,-12.153 0,-6.098 Z"
           style="fill:#f9f9f9;fill-opacity:1;fill-rule:nonzero;stroke:none"
           id="path1806" /></g><g
         id="g1808"
         transform="translate(633.48728,642.30357)"
         style="fill:#f9f9f9"><path
           d="m 0,0 -6.224,-0.168 c -2.421,-0.081 -3.426,-0.291 -4.05,-1.212 -0.42,-0.624 -0.628,-1.125 -0.709,-1.458 -0.086,-0.339 -0.213,-0.504 -0.462,-0.504 -0.293,0 -0.374,0.21 -0.374,0.669 0,0.669 0.789,4.467 0.875,4.802 0.126,0.543 0.25,0.795 0.499,0.795 0.333,0 0.752,-0.417 1.8,-0.501 1.207,-0.126 2.797,-0.21 4.174,-0.21 h 16.538 c 1.334,0 2.256,0.126 2.883,0.21 0.622,0.123 0.957,0.207 1.125,0.207 0.292,0 0.336,-0.249 0.336,-0.878 0,-0.879 -0.125,-3.756 -0.125,-4.842 -0.04,-0.42 -0.127,-0.672 -0.379,-0.672 -0.335,0 -0.419,0.213 -0.459,0.837 l -0.041,0.459 c -0.084,1.086 -1.211,2.256 -4.928,2.34 L 5.215,0 v -17.123 c 0,-3.843 0,-7.142 0.213,-8.939 0.124,-1.169 0.373,-2.084 1.625,-2.252 0.585,-0.084 1.507,-0.168 2.134,-0.168 0.46,0 0.668,-0.126 0.668,-0.333 0,-0.294 -0.335,-0.419 -0.792,-0.419 -2.761,0 -5.393,0.125 -6.561,0.125 -0.957,0 -3.592,-0.125 -5.262,-0.125 -0.54,0 -0.835,0.125 -0.835,0.419 0,0.207 0.168,0.333 0.667,0.333 0.629,0 1.13,0.084 1.503,0.168 0.84,0.168 1.089,1.083 1.213,2.294 C 0,-24.265 0,-20.966 0,-17.123 Z"
           style="fill:#f9f9f9;fill-opacity:1;fill-rule:nonzero;stroke:none"
           id="path1810" /></g><g
         id="g1812"
         transform="translate(671.07218,614.56817)"
         style="fill:#f9f9f9"><path
           d="m 0,0 c -8.024,0 -12.823,6.893 -12.823,15.587 0,10.388 5.472,13.069 10.272,13.069 6.849,0 12.236,-5.804 12.236,-15.159 C 9.685,1.419 2.923,0 0,0 m -1.334,30.662 c -12.536,0 -17.25,-9.228 -17.25,-16.376 0,-7.393 4.843,-16.362 16.835,-16.362 10.603,0 17.279,7.55 17.279,17.121 0,9.556 -6.476,15.617 -16.864,15.617"
           style="fill:#f9f9f9;fill-opacity:1;fill-rule:nonzero;stroke:none"
           id="path1814" /></g><g
         id="g1816"
         transform="translate(705.98428,613.57207)"
         style="fill:#f9f9f9"><path
           d="m 0,0 c -0.667,0.291 -0.792,0.501 -0.792,1.419 0,2.298 0.162,4.802 0.206,5.471 0.043,0.627 0.168,1.083 0.502,1.083 0.374,0 0.42,-0.372 0.42,-0.705 0,-0.546 0.165,-1.422 0.374,-2.132 0.916,-3.09 3.383,-4.218 5.969,-4.218 3.761,0 5.6,2.55 5.6,4.761 0,2.045 -0.628,3.967 -4.092,6.681 l -1.925,1.506 c -4.59,3.591 -6.181,6.512 -6.181,9.896 0,4.594 3.844,7.893 9.65,7.893 2.71,0 4.468,-0.417 5.552,-0.711 0.38,-0.084 0.588,-0.207 0.588,-0.5 0,-0.543 -0.171,-1.755 -0.171,-5.012 0,-0.92 -0.124,-1.253 -0.456,-1.253 -0.292,0 -0.423,0.251 -0.423,0.752 0,0.378 -0.205,1.671 -1.082,2.756 -0.624,0.795 -1.839,2.046 -4.551,2.046 -3.091,0 -4.97,-1.794 -4.97,-4.301 0,-1.919 0.959,-3.383 4.424,-6.014 L 9.813,18.54 C 14.865,14.739 16.66,11.857 16.66,7.895 16.66,5.469 15.744,2.589 12.734,0.624 10.648,-0.71 8.312,-1.088 6.097,-1.088 3.675,-1.088 1.794,-0.794 0,0"
           style="fill:#f9f9f9;fill-opacity:1;fill-rule:nonzero;stroke:none"
           id="path1818" /></g><g
         id="g1820"
         transform="translate(742.78218,626.05847)"
         style="fill:#f9f9f9"><path
           d="m 0,0 h -7.694 c -0.159,0 -0.201,0.129 -0.159,0.288 l 3.841,10.274 c 0.042,0.17 0.129,0.385 0.257,0.385 0.115,0 0.158,-0.215 0.2,-0.385 L 0.199,0.244 C 0.243,0.129 0.199,0 0,0 m 14.111,-12.234 c -0.5,0 -1.132,0.042 -1.747,0.171 -0.888,0.201 -2.092,0.789 -3.682,4.542 -2.664,6.346 -9.356,23.397 -10.359,25.688 -0.415,0.96 -0.675,1.332 -1.047,1.332 -0.415,0 -0.658,-0.456 -1.159,-1.659 L -14.371,-8.395 c -0.831,-2.093 -1.633,-3.512 -3.553,-3.755 -0.33,-0.042 -0.918,-0.084 -1.29,-0.084 -0.33,0 -0.501,-0.087 -0.501,-0.33 0,-0.344 0.243,-0.431 0.802,-0.431 2.163,0 4.456,0.129 4.914,0.129 1.304,0 3.095,-0.129 4.428,-0.129 0.458,0 0.717,0.087 0.717,0.431 0,0.243 -0.13,0.33 -0.631,0.33 h -0.631 c -1.289,0 -1.661,0.543 -1.661,1.287 0,0.504 0.2,1.506 0.615,2.552 l 2.265,5.975 c 0.084,0.243 0.156,0.33 0.372,0.33 h 9.312 c 0.216,0 0.33,-0.087 0.416,-0.288 l 3.338,-8.854 c 0.216,-0.501 -0.071,-0.873 -0.372,-0.96 -0.415,-0.042 -0.588,-0.129 -0.588,-0.372 0,-0.302 0.516,-0.302 1.261,-0.344 3.339,-0.087 6.39,-0.087 7.894,-0.087 1.548,0 1.92,0.087 1.92,0.431 0,0.285 -0.214,0.33 -0.545,0.33"
           style="fill:#f9f9f9;fill-opacity:1;fill-rule:nonzero;stroke:none"
           id="path1822" /></g><g
         id="g1824"
         transform="translate(767.04198,625.18047)"
         style="fill:#f9f9f9"><path
           d="m 0,0 c 0,-5.346 0,-8.225 0.875,-8.98 0.711,-0.627 1.798,-0.916 5.055,-0.916 2.215,0 3.842,0.04 4.886,1.165 0.498,0.545 1.002,1.715 1.084,2.507 0.046,0.377 0.125,0.626 0.46,0.626 0.296,0 0.336,-0.209 0.336,-0.71 0,-0.459 -0.292,-3.588 -0.625,-4.799 -0.253,-0.92 -0.462,-1.128 -2.634,-1.128 -3.007,0 -5.176,0.084 -7.056,0.124 -1.88,0.084 -3.383,0.125 -5.098,0.125 -0.458,0 -1.377,0 -2.38,-0.041 -0.96,0 -2.043,-0.084 -2.878,-0.084 -0.543,0 -0.836,0.125 -0.836,0.419 0,0.207 0.165,0.333 0.665,0.333 0.625,0 1.129,0.087 1.504,0.168 0.835,0.168 1.044,1.086 1.215,2.295 0.205,1.754 0.205,5.053 0.205,8.896 v 7.351 c 0,6.349 0,7.513 -0.081,8.854 -0.084,1.419 -0.42,2.088 -1.799,2.381 -0.335,0.082 -0.833,0.126 -1.378,0.126 -0.46,0 -0.709,0.084 -0.709,0.372 0,0.292 0.292,0.378 0.918,0.378 1.965,0 4.597,-0.126 5.722,-0.126 1.002,0 4.051,0.126 5.682,0.126 0.585,0 0.873,-0.086 0.873,-0.378 0,-0.288 -0.25,-0.372 -0.748,-0.372 -0.461,0 -1.128,-0.044 -1.632,-0.126 C 0.501,18.377 0.168,17.666 0.081,16.205 0,14.864 0,13.7 0,7.351 Z"
           style="fill:#f9f9f9;fill-opacity:1;fill-rule:nonzero;stroke:none"
           id="path1826" /></g><g
         id="g1828"
         transform="translate(800.90908,614.56817)"
         style="fill:#f9f9f9"><path
           d="m 0,0 c -8.023,0 -12.823,6.893 -12.823,15.587 0,10.388 5.472,13.069 10.273,13.069 6.862,0 12.236,-5.804 12.236,-15.159 C 9.686,1.419 2.922,0 0,0 m -1.333,30.662 c -12.522,0 -17.251,-9.228 -17.251,-16.376 0,-7.393 4.843,-16.362 16.836,-16.362 10.602,0 17.279,7.55 17.279,17.121 0,9.556 -6.463,15.617 -16.864,15.617"
           style="fill:#f9f9f9;fill-opacity:1;fill-rule:nonzero;stroke:none"
           id="path1830" /></g><g
         id="g1832"
         transform="translate(827.51358,618.74987)"
         style="fill:#f9f9f9"><path
           d="m 0,0 c 0.084,-3.258 0.628,-4.344 1.464,-4.638 0.711,-0.249 1.501,-0.291 2.174,-0.291 0.458,0 0.708,-0.081 0.708,-0.336 0,-0.332 -0.375,-0.416 -0.96,-0.416 -2.713,0 -4.383,0.125 -5.178,0.125 -0.377,0 -2.34,-0.125 -4.51,-0.125 -0.546,0 -0.922,0.041 -0.922,0.416 0,0.255 0.252,0.336 0.672,0.336 0.539,0 1.289,0.042 1.876,0.207 1.087,0.336 1.255,1.542 1.293,5.183 l 0.38,24.722 c 0,0.833 0.123,1.418 0.539,1.418 0.46,0 0.837,-0.54 1.548,-1.295 0.501,-0.54 6.851,-7.349 12.946,-13.402 2.839,-2.843 8.48,-8.854 9.19,-9.526 h 0.209 l -0.42,18.755 c -0.04,2.547 -0.417,3.339 -1.419,3.759 -0.625,0.251 -1.628,0.251 -2.213,0.251 -0.506,0 -0.668,0.124 -0.668,0.372 0,0.334 0.458,0.378 1.085,0.378 2.171,0 4.174,-0.126 5.054,-0.126 0.46,0 2.043,0.126 4.092,0.126 0.541,0 0.959,-0.044 0.959,-0.378 0,-0.248 -0.25,-0.372 -0.753,-0.372 -0.418,0 -0.749,0 -1.252,-0.126 -1.168,-0.335 -1.501,-1.211 -1.546,-3.551 L 23.89,-4.887 c 0,-0.918 -0.165,-1.295 -0.544,-1.295 -0.456,0 -0.96,0.461 -1.419,0.917 C 19.295,-2.757 13.95,2.717 9.606,7.018 5.056,11.526 0.417,16.745 -0.33,17.54 h -0.124 z"
           style="fill:#f9f9f9;fill-opacity:1;fill-rule:nonzero;stroke:none"
           id="path1834" /></g><g
         id="g1836"
         transform="translate(489.33088,857.63257)"
         style="fill:#f9f9f9"><path
           d="m 0,0 c -12.508,-10.315 -29.773,-19.972 -51.766,-28.927 -22.007,-8.983 -44.574,-14.6 -67.728,-16.891 0.201,11.446 5.632,24.026 16.277,37.68 10.631,13.656 24.401,25.346 41.279,35.046 16.891,9.699 33.368,14.543 49.43,14.543 20.847,0 31.291,-4.801 31.291,-14.385 C 18.783,19.343 12.522,10.316 0,0 m -74.133,-66.638 c 15.031,0 15.475,-2.665 15.475,-2.966 0,-0.602 -0.975,-1.633 -3.668,-2.75 -2.836,-1.19 -6.606,-1.762 -11.175,-1.762 -12.551,0 -22.638,1.775 -30.074,5.315 9.772,1.433 19.673,2.163 29.442,2.163 m -90.249,-61.825 c -6.505,-3.696 -15.445,-8.924 -27.18,-15.945 -10.76,-6.419 -17.48,-10.415 -20.975,-12.494 v 0.66 c 0,0.345 0.014,0.688 0.027,1.015 0.26,12.781 5.417,25.592 15.375,38.055 0.444,-0.099 0.889,-0.214 1.332,-0.315 11.992,-2.808 22.538,-6.461 31.421,-10.976 m 9.8,-6.016 c 14.858,-10.416 22.408,-22.795 22.408,-36.779 0,-6.232 -1.432,-12.349 -4.268,-18.195 -9.859,-2.552 -19.831,-3.843 -29.659,-3.843 -24.243,0 -38.829,7.995 -44.574,24.473 11.807,6.561 25.361,14.8 40.318,24.502 7.236,4.57 12.537,7.881 15.775,9.842 m 52.611,22.48 c 10.23,0 17.623,-1.791 21.922,-5.315 4.283,-3.496 6.375,-8.053 6.375,-13.914 0,-9.786 -5.301,-20.358 -15.732,-31.406 -9.914,-10.471 -22.665,-18.483 -37.953,-23.825 1.805,4.942 2.722,10.13 2.722,15.517 0,15.66 -7.722,29.4 -22.953,40.848 20.245,11.991 35.59,18.095 45.619,18.095 M -9.686,47.568 c -18.626,0 -35.933,-2.665 -51.451,-7.908 -15.545,-5.244 -28.326,-12.065 -38.011,-20.274 -9.671,-8.21 -17.279,-17.294 -22.538,-27.007 -5.3,-9.744 -7.98,-19.544 -7.98,-29.128 0,-2.866 0.2,-5.66 0.659,-8.383 -2.98,-0.142 -7.035,-0.2 -12.064,-0.2 -24.816,0 -43.528,4.627 -55.62,13.769 -11.936,9.027 -17.996,20.718 -18.038,34.73 -0.029,0.158 -0.058,0.316 -0.086,0.473 0,0 0.057,10.374 7.549,21.076 1.334,1.446 3.068,2.293 5.33,2.379 2.379,0.085 4.701,-0.717 7.079,-0.818 3.18,-0.129 6.576,1.276 8.081,4.084 3.897,7.206 -4.328,8.969 -9.5,6.949 v 0.013 c -15.044,-4.842 -26.865,-18.324 -27.179,-37.165 0.573,-15.259 7.191,-27.996 19.715,-37.883 13.01,-10.258 32.953,-15.46 59.23,-15.46 7.579,0 13.34,0.159 17.481,0.517 1.82,-4.686 4.327,-8.826 7.493,-12.308 -36.737,-7.623 -65.937,-22.122 -86.797,-43.14 -6.505,1.132 -13.683,1.935 -21.435,2.435 -3.348,0.208 -6.813,0.358 -10.368,0.456 l -1.298,-3.225 -0.104,-3.532 c 9.087,-0.405 18.176,-1.222 27.159,-2.467 -12.38,-14.542 -18.642,-29.128 -18.642,-43.355 0,-3.052 0.273,-5.775 0.818,-8.168 -5.086,-2.706 -10.588,-5.387 -16.449,-8.009 -22.567,-10.072 -50.648,-19.329 -81.595,-26.277 -14.529,-3.265 -28.699,-5.787 -42.195,-7.623 -5.059,-0.671 -10.016,-1.259 -14.859,-1.746 -7.106,-0.716 -13.983,-1.22 -20.559,-1.519 -1.304,-0.059 -2.594,-0.101 -3.869,-0.143 -2.608,-0.087 -5.187,-0.143 -7.694,-0.174 h -3.281 c -1.218,0 -2.406,0.015 -3.596,0.045 -0.473,0.015 -0.946,0.015 -1.419,0.028 -1.389,0.087 -2.737,0.202 -4.041,0.344 -3.667,0.429 -6.977,1.047 -9.915,1.861 -21.934,6.045 -23.951,22.416 -7.563,40.044 -1.761,4.237 -1.406,12.568 -0.871,18.348 -0.192,-0.136 -0.387,-0.269 -0.578,-0.406 -12.965,-9.356 -22.006,-20.574 -24.729,-34.071 -1.389,-6.836 -1.088,-12.637 0.645,-17.509 4.069,-11.491 16.119,-17.823 32.897,-20.445 0.027,-0.014 0.057,-0.014 0.071,-0.014 4.842,-0.761 10.073,-1.203 15.602,-1.391 1.82,-0.056 3.669,-0.087 5.531,-0.087 2.021,0 4.083,0.031 6.161,0.101 0.358,0 0.702,0.014 1.061,0.028 0.945,0.031 1.891,0.073 2.865,0.115 0.573,0.031 1.16,0.059 1.748,0.086 h 0.057 c 0.087,0.015 0.202,0.015 0.3,0.015 2.179,0.128 4.386,0.271 6.606,0.444 5.272,0.414 10.688,1.002 16.22,1.719 2.005,0.257 4.039,0.531 6.074,0.831 0.129,0.014 0.259,0.028 0.401,0.059 0.746,0.1 1.49,0.215 2.235,0.327 0.918,0.145 1.834,0.288 2.752,0.431 1.188,0.188 2.378,0.373 3.582,0.574 0.416,0.07 0.83,0.142 1.245,0.215 2.165,0.358 4.356,0.745 6.549,1.145 5.974,1.088 12.005,2.309 18.009,3.612 1.907,0.414 3.812,0.845 5.718,1.274 0.328,0.072 0.658,0.142 1.001,0.229 2.149,0.487 4.299,0.988 6.434,1.506 0.1,0.027 0.2,0.056 0.3,0.069 2.351,0.575 4.687,1.148 7.022,1.736 0.386,0.1 0.773,0.184 1.16,0.285 2.034,0.518 4.068,1.047 6.089,1.575 4.643,1.235 9.227,2.48 13.712,3.77 1.72,0.487 3.424,0.988 5.115,1.474 0.572,0.174 1.147,0.345 1.719,0.504 2.307,0.686 4.585,1.374 6.835,2.076 0.142,0.042 0.287,0.087 0.443,0.129 0.588,0.188 1.19,0.372 1.778,0.546 0.158,0.056 0.3,0.098 0.458,0.143 2.191,0.688 4.34,1.374 6.476,2.062 0.387,0.115 0.774,0.243 1.146,0.372 1.777,0.575 3.524,1.148 5.244,1.721 1.733,0.588 3.453,1.173 5.13,1.747 1.232,0.431 2.463,0.859 3.668,1.275 0.887,0.317 1.761,0.63 2.636,0.947 1.189,0.428 2.364,0.845 3.525,1.275 0.902,0.328 1.804,0.672 2.678,1.002 1.175,0.432 2.322,0.873 3.455,1.305 0.658,0.257 1.317,0.514 1.976,0.758 1.876,0.744 3.696,1.461 5.431,2.177 0.629,0.26 1.23,0.518 1.833,0.761 5.76,2.406 10.573,4.643 14.227,6.605 0.501,0.271 0.989,0.545 1.461,0.816 9.056,-15.704 28.083,-23.654 56.595,-23.654 8.797,0 18.167,0.859 27.867,2.535 -7.006,-9.727 -17.595,-18.668 -31.55,-26.621 -15.344,-8.753 -34.745,-15.802 -57.626,-20.977 l -1.216,-0.271 0.544,-6.907 1.575,0.345 c 25.074,5.216 46.25,12.953 63,23.011 16.59,9.929 28.44,21.29 35.273,33.77 21.12,5.273 38.7,14.213 52.239,26.608 13.799,12.635 20.805,25.143 20.805,37.193 0,7.938 -3.481,14.444 -10.316,19.285 -6.678,4.743 -17.221,7.164 -31.306,7.164 -13.912,0 -32.896,-6.362 -56.437,-18.898 -10.159,5.946 -21.979,10.431 -35.175,13.324 18.87,20.417 45.189,34.014 78.259,40.476 9.14,-7.006 21.778,-10.559 37.595,-10.559 7.035,0 13.454,1.319 19.042,3.898 6.031,2.778 8.969,5.758 8.969,9.127 0,5.443 -7.064,7.978 -22.223,7.978 -13.64,0 -27.408,-1.131 -40.977,-3.351 -3.295,3.295 -5.501,7.307 -6.59,11.963 23.87,2.78 47.524,8.969 70.32,18.368 23.253,9.6 41.851,20.203 55.263,31.506 13.81,11.664 20.531,21.736 20.531,30.82 0,12.136 -12.796,18.31 -38.012,18.31"
           style="fill:#f9f9f9;fill-opacity:1;fill-rule:nonzero;stroke:none"
           id="path1838" /></g></g><path
       style="fill:#a0a0a0;stroke:none;stroke-width:1.60643"
       d=""
       id="path1840"
       transform="matrix(0.75000002,0,0,-0.75000002,0,1000)" /></g></svg>
